<?xml version="1.0" encoding="UTF-8"?>
<svg width="174" height="30" viewBox="0 0 174 30" fill="none" xmlns="http://www.w3.org/2000/svg">

<g
    fill-rule="nonzero"
    stroke="rgba(0,0,0,0.04)"
    stroke-width="2"
    stroke-linejoin="round"
    stroke-linecap="round"
    paint-order="stroke fill"
  >

<path d="M0 0 C0.33 0.66 0.66 1.32 1 2 C2.08023437 1.95875 3.16046875 1.9175 4.2734375 1.875 C43.34662794 1.94357954 82.7711259 25.53000229 110.046875 51.91015625 C122.73717095 64.66723224 132.67901108 80.62410373 140 97 C140.5669458 96.98952637 141.1338916 96.97905273 141.71801758 96.96826172 C183.34153383 96.30657387 220.91928334 105.83574011 252.25 134.375 C252.79946289 134.87491455 253.34892578 135.3748291 253.91503906 135.88989258 C256.56504517 138.38131895 258.67101043 140.58028293 260 144 C260.66 144 261.32 144 262 144 C264.11667611 146.30159499 265.83340524 148.94109041 267.625 151.5 C268.16261963 152.26594482 268.70023926 153.03188965 269.25415039 153.82104492 C274.3146009 161.19263883 278.34391543 168.85590743 282 177 C282.73863281 178.62421875 282.73863281 178.62421875 283.4921875 180.28125 C286.29528593 186.71676593 288.46504906 193.15028141 290 200 C290.20625 200.87914062 290.4125 201.75828125 290.625 202.6640625 C297.34934086 237.31309663 287.98622403 273.4082944 268.7734375 302.48828125 C263.11702379 310.4994575 256.67534487 317.82935129 250 325 C249.28714844 325.79019531 248.57429687 326.58039063 247.83984375 327.39453125 C240.74491777 334.92756586 232.53452487 340.73173962 224.04296875 346.58886719 C222.37142315 347.74344816 220.71473432 348.91951188 219.0625 350.1015625 C206.28283035 358.84764892 190.82149076 363.88204604 176 368 C174.93910156 368.29648437 173.87820313 368.59296875 172.78515625 368.8984375 C138.59562331 377.60749885 102.94228742 372.17158311 69.5 363 C68.23736328 362.66307129 68.23736328 362.66307129 66.94921875 362.31933594 C60.117632 360.3576 53.79593443 357.88437953 49.9375 351.6875 C48.76223675 347.06479787 48.87698274 344.64180469 50 340 C52.23458848 336.45548034 54.16945828 334.59921811 58 333 C64.63230095 332.03758409 70.60665817 333.76185567 76.875 335.75 C117.98498528 348.08335961 160.96208028 349.55304096 199.8125 329.125 C206.28085583 325.610736 212.21298587 321.5555513 218 317 C218.94875 316.26652344 219.8975 315.53304688 220.875 314.77734375 C226.56199322 310.27256515 231.49333011 305.6772335 236 300 C236.78117188 299.04351562 237.56234375 298.08703125 238.3671875 297.1015625 C257.24431436 273.62379256 266.66967313 245.12829516 263.79785156 214.87011719 C261.20349655 194.47750782 252.17467642 177.59397828 239 162 C238.23042969 161.02675781 237.46085938 160.05351562 236.66796875 159.05078125 C233.94362372 155.78870252 230.86012716 153.20982163 227.5 150.625 C226.57489624 149.91283325 226.57489624 149.91283325 225.63110352 149.1862793 C209.66141138 137.06957928 191.87236169 129.15779994 172 126 C170.700625 125.773125 169.40125 125.54625 168.0625 125.3125 C161.78839676 124.63830908 155.2961513 124.73005152 149 125 C148.67 125.33 148.34 125.66 148 126 C148.10435882 127.77409993 148.2169393 129.54809285 148.37060547 131.31860352 C150.71977546 158.78835078 141.21725294 183.61024556 123.7890625 204.671875 C119.89562072 209.19782537 119.89562072 209.19782537 118 211 C117.34 211 116.68 211 116 211 C115.67 211.99 115.34 212.98 115 214 C112.90811415 215.73832768 110.84600451 217.3190486 108.625 218.875 C107.67814331 219.54208984 107.67814331 219.54208984 106.7121582 220.22265625 C94.32064604 228.75364557 82.06924953 232.34546871 67 231 C57.69591297 228.9113274 49.24665285 224.099283 44.03125 215.94140625 C38.14707043 204.86399243 38.42871198 190.80524768 41.5 178.875 C45.60788811 166.39222731 51.88603429 155.30036365 60 145 C60.98419922 143.67742187 60.98419922 143.67742187 61.98828125 142.328125 C65.51650943 137.62382075 65.51650943 137.62382075 67 136 C67.66 136 68.32 136 69 136 C69 135.34 69 134.68 69 134 C76.85676706 125.65796203 87.0408707 119.02370522 96.8125 113.125 C97.72721069 112.57126709 97.72721069 112.57126709 98.66040039 112.00634766 C102.65758683 109.64573178 106.70034153 107.7506932 111 106 C110.51982744 100.58564045 108.59722013 97.24867836 105.625 92.875 C105.22539063 92.26785156 104.82578125 91.66070312 104.4140625 91.03515625 C102.75231228 88.52613206 101.05659254 86.07290305 99.2109375 83.6953125 C98 82 98 82 98 80 C97.34 80 96.68 80 96 80 C94.58984375 78.56640625 94.58984375 78.56640625 92.9375 76.5625 C72.18937202 52.37756555 43.25698009 36.89979894 12 31 C11.08138184 30.82484863 10.16276367 30.64969727 9.21630859 30.46923828 C0.34003138 28.93251137 -8.39638022 28.59896189 -17.375 28.625 C-18.48867447 28.62631424 -18.48867447 28.62631424 -19.62484741 28.62765503 C-57.17061133 28.77300385 -93.89533104 41.11632092 -121.18359375 67.50952148 C-123.47665804 69.71603226 -124.92976054 70.97658685 -128 72 C-128 72.66 -128 73.32 -128 74 C-128.66 74 -129.32 74 -130 74 C-130.23589844 74.55042969 -130.47179687 75.10085938 -130.71484375 75.66796875 C-132.32264344 78.58546546 -134.35604787 80.81599783 -136.5625 83.3125 C-145.19381988 93.38552102 -151.332636 105.06519818 -157 117 C-156.319375 117.12375 -155.63875 117.2475 -154.9375 117.375 C-142.61534005 119.99673616 -130.17808615 125.12735545 -122 135 C-121.175 135.763125 -120.35 136.52625 -119.5 137.3125 C-108.6961309 148.92665928 -102.30885611 163.70199948 -102.8203125 179.69921875 C-103.79554269 192.18640537 -108.04184283 203.04184283 -117 212 C-117.66 212 -118.32 212 -119 212 C-119 212.66 -119 213.32 -119 214 C-120.68231469 214.967407 -122.37115197 215.92347446 -124.0625 216.875 C-125.00222656 217.40867187 -125.94195312 217.94234375 -126.91015625 218.4921875 C-136.44911621 223.14710349 -148.19256305 223.58878424 -158.4375 220.875 C-169.91315902 216.72994591 -179.12455571 208.09784762 -184.8125 197.4375 C-192.66066665 180.6121961 -194.5019806 162.28828675 -192 144 C-223.9334687 148.95969405 -253.4659806 163.2380359 -273.5703125 189.2265625 C-288.95564327 210.66171825 -295.87828705 234.9523655 -291.6640625 261.08300781 C-287.5497712 282.77749793 -276.69855786 300.99412311 -263 318 C-262.33556885 318.82975342 -262.33556885 318.82975342 -261.65771484 319.67626953 C-259.21497109 322.78996789 -259.21497109 322.78996789 -256 325 C-256 325.66 -256 326.32 -256 327 C-255.40832031 327.268125 -254.81664062 327.53625 -254.20703125 327.8125 C-251.98085245 329.0103024 -250.50763525 330.25936491 -248.6875 332 C-230.15548504 348.39370554 -204.69850636 360.49353812 -180 363 C-179.72027344 361.82566406 -179.44054687 360.65132812 -179.15234375 359.44140625 C-171.78147039 329.46882042 -157.06674453 299.39730283 -130.1875 282.3125 C-124.96688151 279.36310646 -119.69633203 276.87574192 -114 275 C-113.02353516 274.66355469 -113.02353516 274.66355469 -112.02734375 274.3203125 C-99.94277212 270.69742244 -86.30437996 273.02926088 -75.25 278.6875 C-62.68340102 286.13978544 -54.55021962 296.38088208 -50.65625 310.546875 C-47.62179006 326.51391419 -51.17860344 341.54254102 -60 355 C-75.60493268 376.59722684 -99.08292738 390.17734625 -125.24609375 394.578125 C-136.06395695 395.779296 -147.13745686 395.22324999 -158 395 C-158.53216876 443.16945992 -156.0377907 491.59545273 -143.57275391 538.38427734 C-143 541 -143 541 -143 545 C-142.34 544.67 -141.68 544.34 -141 544 C-139.11602869 543.82732802 -137.22655947 543.71344585 -135.33666992 543.62695312 C-134.13903519 543.57016891 -132.94140045 543.5133847 -131.70747375 543.45487976 C-129.73885628 543.36893303 -129.73885628 543.36893303 -127.73046875 543.28125 C-126.35388424 543.21832356 -124.97731279 543.15511086 -123.60075378 543.09162903 C-119.89835911 542.92254293 -116.1957006 542.76016136 -112.49291229 542.59994888 C-110.18925882 542.50007625 -107.88567088 542.39879463 -105.58209229 542.29721069 C-80.06132296 541.17557176 -54.54567044 540.2812863 -29 540 C-28.2305304 539.99139954 -27.46106079 539.98279907 -26.66827393 539.97393799 C79.46208369 538.85231541 79.46208369 538.85231541 100.21875 558.89453125 C104.1741783 563.5699169 105.59439859 568.70480052 105.36328125 574.84765625 C104.43805515 580.32937218 102.06243794 585.40634308 99 590 C98.34 590 97.68 590 97 590 C97 590.66 97 591.32 97 592 C63.82037017 619.38016512 6.83565631 616.18782914 -33.63989258 616.18530273 C-37.53152524 616.18748265 -41.4228705 616.20569077 -45.31445312 616.22460938 C-67.64866776 616.27480756 -90.07354907 615.59426742 -112 611 C-113.27746094 610.73574219 -114.55492187 610.47148438 -115.87109375 610.19921875 C-132.42235259 606.28960818 -148.90324443 598.10724331 -159 584 C-159.89628369 582.28779533 -160.76863146 580.56293969 -161.62231445 578.82910156 C-162.29191948 577.47392426 -162.29191948 577.47392426 -162.97505188 576.09136963 C-163.31328476 575.40121765 -163.65151764 574.71106567 -164 574 C-205.77737428 578.31032502 -247.52108666 582.83819211 -288.99584961 589.52758789 C-290.22311768 589.72215576 -291.45038574 589.91672363 -292.71484375 590.1171875 C-293.76792725 590.28847168 -294.82101074 590.45975586 -295.90600586 590.63623047 C-304.25297759 591.61760724 -310.16503672 590.71643232 -317 585.875 C-319.72361231 581.9598073 -319.78924253 578.64406919 -319 574 C-318.04173799 570.70637097 -316.86336952 569.90465993 -313.98828125 567.8984375 C-309.57778782 565.57950661 -305.04988632 564.58028551 -300.1875 563.625 C-299.16889893 563.42003906 -298.15029785 563.21507812 -297.10083008 563.00390625 C-261.11417704 556.06271395 -224.28415621 552.08468415 -187.8125 548.6875 C-186.99491211 548.61112305 -186.17732422 548.53474609 -185.33496094 548.45605469 C-180.54017187 548.04245996 -175.81258607 547.94004706 -171 548 C-171 546.68 -171 545.36 -171 544 C-171.66 543.67 -172.32 543.34 -173 543 C-173.53173828 540.63867187 -173.53173828 540.63867187 -173.9453125 537.46875 C-174.66035244 532.34499404 -175.45720788 527.24860713 -176.3671875 522.15625 C-179.16975092 506.211613 -181.60552325 490.28952617 -183.3125 474.1875 C-183.3934491 473.42920898 -183.47439819 472.67091797 -183.55780029 471.88964844 C-184.08144576 466.9300762 -184.56087 461.96775372 -185 457 C-185.15903809 455.20187866 -185.15903809 455.20187866 -185.32128906 453.36743164 C-186.1063387 443.22489553 -186.15301143 433.10440218 -186.13037109 422.9362793 C-186.12496309 420.04275383 -186.13037491 417.14938045 -186.13671875 414.25585938 C-186.13605863 412.39062466 -186.13477883 410.52539004 -186.1328125 408.66015625 C-186.13483673 407.80792984 -186.13686096 406.95570343 -186.13894653 406.07765198 C-186.11909662 400.96509499 -185.73272732 396.06105746 -185 391 C-185.680625 390.91363281 -186.36125 390.82726562 -187.0625 390.73828125 C-213.78897786 386.86436358 -238.47812007 374.35180469 -259.98779297 358.48339844 C-261.41114748 357.4341019 -262.84339917 356.3968243 -264.28173828 355.36816406 C-265.01505371 354.83674805 -265.74836914 354.30533203 -266.50390625 353.7578125 C-267.50852905 353.03682373 -267.50852905 353.03682373 -268.53344727 352.30126953 C-269.01740967 351.87185059 -269.50137207 351.44243164 -270 351 C-270 350.34 -270 349.68 -270 349 C-270.59425781 348.73058594 -271.18851563 348.46117187 -271.80078125 348.18359375 C-279.33615705 344.12814283 -284.85538115 335.59761466 -290 329 C-290.79535156 327.98292969 -291.59070313 326.96585938 -292.41015625 325.91796875 C-313.36057683 298.31079498 -324.19641806 264.13247606 -320.04418945 229.51293945 C-319.02244828 222.15036876 -317.13453146 215.11232552 -315 208 C-314.67 206.72511719 -314.34 205.45023438 -314 204.13671875 C-313.67 203.10160156 -313.34 202.06648437 -313 201 C-312.34 200.67 -311.68 200.34 -311 200 C-310.31836789 198.00505085 -309.65472939 196.00393959 -309 194 C-298.88948326 173.75418584 -283.56409703 155.90572925 -265 143 C-263.94683594 142.25363281 -262.89367187 141.50726563 -261.80859375 140.73828125 C-238.56479383 125.01372711 -212.89940263 116.70996339 -185 115 C-184.87625 114.46375 -184.7525 113.9275 -184.625 113.375 C-179.68032811 94.58524682 -167.74087558 76.39995454 -155 62 C-154.13503906 61.01386719 -153.27007812 60.02773437 -152.37890625 59.01171875 C-122.93254662 25.88522322 -79.23407053 3.65354461 -34.73071289 0.85742188 C-23.16434935 0.27030865 -11.57930149 0.10874344 0 0 Z M88.6875 152.9375 C78.56173853 163.23288575 66.99732426 178.49566151 66.75 193.5 C66.72421875 194.4384375 66.6984375 195.376875 66.671875 196.34375 C67.05821718 199.47128191 67.79207929 200.77692194 70 203 C76.89379288 204.93509975 81.79926506 203.35591875 88 200 C91.21686064 197.8874348 94.11533614 195.54374904 97 193 C97.66773438 192.42636719 98.33546875 191.85273438 99.0234375 191.26171875 C112.97296668 178.38735091 120.39355586 160.23697037 121.9140625 141.59765625 C122.02481132 138.25002154 121.65574096 135.27870478 121 132 C109.44951712 132 96.444188 145.29631127 88.6875 152.9375 Z M-164 143 C-167.70548309 156.90321754 -166.85999199 172.22303379 -160 185 C-156.65678122 189.67106978 -153.52087223 192.35734612 -148 194 C-142.81110855 194.28538903 -138.0263836 193.43426837 -134 190 C-130.27103795 184.27337972 -129.4171676 178.251566 -130.5625 171.625 C-133.28593185 161.21504011 -140.11543661 153.4314431 -149.0390625 147.6875 C-153.78840976 145.11414849 -158.70542234 143.93145348 -164 143 Z M-127.125 315.5625 C-140.80783673 329.91755216 -147.99009717 348.13783128 -153 367 C-137.08180838 370.20812785 -117.26169886 366.0340643 -103.5546875 357.47265625 C-92.05680837 349.71949922 -81.80030489 340.86308404 -78 327 C-77.16082745 319.59381435 -77.37555866 313.96309541 -82 308 C-86.73382053 302.92804943 -91.19740294 301.81973742 -98 301 C-109.36981095 301 -119.20502272 308.11992475 -127.125 315.5625 Z M-100 569 C-101.23807404 569.06507751 -101.23807404 569.06507751 -102.50115967 569.13146973 C-107.35719046 569.39069332 -112.21005797 569.68046311 -117.0625 570 C-118.16287598 570.0707373 -119.26325195 570.14147461 -120.39697266 570.21435547 C-121.37069824 570.28799316 -122.34442383 570.36163086 -123.34765625 570.4375 C-124.56980835 570.52837891 -124.56980835 570.52837891 -125.81665039 570.62109375 C-128.18205353 571.03159422 -129.91829579 571.82489715 -132 573 C-125.70954692 577.71444324 -119.68271555 580.76760738 -112.1875 583 C-111.47086182 583.21938232 -110.75422363 583.43876465 -110.01586914 583.66479492 C-105.66511075 584.87843019 -102.38363335 585.1010696 -98 584 C-98 584.66 -98 585.32 -98 586 C-78.03622222 588.83623326 -58.19700748 589.16414897 -38.04980469 589.13037109 C-34.27014113 589.12502847 -30.49059739 589.13033916 -26.7109375 589.13671875 C-7.33227706 589.14312573 12.1122829 589.03321461 31.375 586.6875 C32.4573291 586.55778809 33.5396582 586.42807617 34.65478516 586.29443359 C47.76688191 584.6346992 61.23158267 582.36013731 73 576 C73.33 575.34 73.66 574.68 74 574 C67.87475044 570.90276929 62.03240808 570.10913519 55.25 569.375 C54.24839844 569.25382813 53.24679687 569.13265625 52.21484375 569.0078125 C31.58507657 566.64425262 10.85679288 566.79998494 -9.875 566.8125 C-11.42429606 566.81244382 -12.97359212 566.81238275 -14.52288818 566.81231689 C-43.04733327 566.82131114 -71.51162311 567.49355866 -100 569 Z " fill="#FE742E" transform="translate(521,192)"/>
<path d="M0 0 C0.80196808 0.0558728 1.60393616 0.11174561 2.4302063 0.16931152 C5.30669596 0.37570535 8.18030565 0.60986844 11.0546875 0.84375 C13.45533097 1.02699623 15.85605219 1.2092258 18.25683594 1.390625 C27.19064799 2.07405693 36.12155298 2.79265445 45.05224609 3.51556396 C61.3367655 4.83366029 77.60772446 6.12734494 93.93652344 6.76116943 C97.03503896 6.88197083 100.13263471 7.0231195 103.23046875 7.16015625 C105.27598931 7.24348274 107.32156183 7.32554496 109.3671875 7.40625 C110.45676758 7.45088379 111.54634766 7.49551758 112.66894531 7.54150391 C120.09041917 7.82626861 127.4614946 7.86140126 134.8828125 7.5859375 C138.5988054 7.88797633 140.89451743 8.89551201 144.0546875 10.84375 C146.43938636 14.22848387 147.0546875 16.19837026 147.0546875 20.34375 C145.59726904 25.44471462 143.50208946 28.33691821 139.0625 31.0703125 C126.66230011 36.87377305 110.67229729 34.96411144 97.3046875 34.28125 C96.45449036 34.2400705 95.60429321 34.19889099 94.72833252 34.15646362 C76.3560405 33.24517357 58.03112947 31.69844844 39.70793152 30.10393143 C37.4485461 29.90788635 35.18895758 29.71433941 32.92932129 29.52120972 C-9.8307078 25.8481107 -9.8307078 25.8481107 -15.9453125 18.84375 C-18.02911839 16.09691496 -18.02694878 14.16625425 -17.6953125 10.84375 C-16.72400363 5.02668912 -16.72400363 5.02668912 -14.9453125 2.84375 C-9.75918293 0.13224113 -5.84735508 -0.51016702 0 0 Z " fill="#FE742E" transform="translate(681.9453125,741.15625)"/>
<path d="M0 0 C-1.46966358 3.39859703 -3.38037514 5.64963709 -6 8.25 C-6.70125 8.95640625 -7.4025 9.6628125 -8.125 10.390625 C-10 12 -10 12 -12 12 C-12 12.66 -12 13.32 -12 14 C-12.66 14 -13.32 14 -14 14 C-14.35384766 14.82564453 -14.35384766 14.82564453 -14.71484375 15.66796875 C-16.32264344 18.58546546 -18.35604787 20.81599783 -20.5625 23.3125 C-29.19381988 33.38552102 -35.332636 45.06519818 -41 57 C-40.319375 57.12375 -39.63875 57.2475 -38.9375 57.375 C-26.61534005 59.99673616 -14.17808615 65.12735545 -6 75 C-5.175 75.763125 -4.35 76.52625 -3.5 77.3125 C7.3038691 88.92665928 13.69114389 103.70199948 13.1796875 119.69921875 C12.20445731 132.18640537 7.95815717 143.04184283 -1 152 C-1.66 152 -2.32 152 -3 152 C-3 152.66 -3 153.32 -3 154 C-4.68231469 154.967407 -6.37115197 155.92347446 -8.0625 156.875 C-9.00222656 157.40867187 -9.94195312 157.94234375 -10.91015625 158.4921875 C-20.44911621 163.14710349 -32.19256305 163.58878424 -42.4375 160.875 C-53.91315902 156.72994591 -63.12455571 148.09784762 -68.8125 137.4375 C-76.66066665 120.6121961 -78.5019806 102.28828675 -76 84 C-107.9334687 88.95969405 -137.4659806 103.2380359 -157.5703125 129.2265625 C-172.95564327 150.66171825 -179.87828705 174.9523655 -175.6640625 201.08300781 C-171.5497712 222.77749793 -160.69855786 240.99412311 -147 258 C-146.33556885 258.82975342 -146.33556885 258.82975342 -145.65771484 259.67626953 C-143.21497109 262.78996789 -143.21497109 262.78996789 -140 265 C-140 265.66 -140 266.32 -140 267 C-139.11248047 267.4021875 -139.11248047 267.4021875 -138.20703125 267.8125 C-135.98085245 269.0103024 -134.50763525 270.25936491 -132.6875 272 C-114.15548504 288.39370554 -88.69850636 300.49353812 -64 303 C-63.72027344 301.82566406 -63.44054687 300.65132812 -63.15234375 299.44140625 C-55.78147039 269.46882042 -41.06674453 239.39730283 -14.1875 222.3125 C-8.96688151 219.36310646 -3.69633203 216.87574192 2 215 C2.97646484 214.66355469 2.97646484 214.66355469 3.97265625 214.3203125 C16.05722788 210.69742244 29.69562004 213.02926088 40.75 218.6875 C53.31659898 226.13978544 61.44978038 236.38088208 65.34375 250.546875 C68.37820994 266.51391419 64.82139656 281.54254102 56 295 C45.43961228 309.61557661 30.89161042 321.46963593 14 328 C10.5625 328.1875 10.5625 328.1875 8 328 C9.344201 325.311598 10.50900556 325.30065354 13.3125 324.3125 C25.73471527 319.51018853 36.95485696 311.77853302 46 302 C46.54140625 301.44054687 47.0828125 300.88109375 47.640625 300.3046875 C59.38758675 287.68947206 62.86689426 273.40290443 62.34375 256.56640625 C61.74734326 246.22513943 57.67835981 237.84625032 51 230 C50.34 229.67 49.68 229.34 49 229 C49 228.34 49 227.68 49 227 C48.18789063 226.5978125 48.18789063 226.5978125 47.359375 226.1875 C45.65318048 225.32875309 43.95634108 224.45133359 42.265625 223.5625 C41.27046875 223.046875 40.2753125 222.53125 39.25 222 C38.26515625 221.484375 37.2803125 220.96875 36.265625 220.4375 C24.26242534 215.15379489 10.2095289 215.34197718 -2.03125 219.765625 C-3.0109375 220.17296875 -3.990625 220.5803125 -5 221 C-5.8971875 221.36609375 -6.794375 221.7321875 -7.71875 222.109375 C-28.94133791 232.22131394 -44.57139007 255.74025929 -53 277 C-54.29590869 280.66148313 -55.47281715 284.3535928 -56.625 288.0625 C-56.9240625 289.00416016 -57.223125 289.94582031 -57.53125 290.91601562 C-59.20658553 296.24224828 -60.7076146 301.56814254 -62 307 C-84.6602592 305.01186161 -106.52547557 294.90960663 -125 282 C-125.79535156 281.47019531 -126.59070313 280.94039062 -127.41015625 280.39453125 C-128.9852335 279.32673534 -130.50370904 278.17565718 -132 277 C-132 276.34 -132 275.68 -132 275 C-132.86238281 274.60941406 -132.86238281 274.60941406 -133.7421875 274.2109375 C-136.16814677 272.90981748 -138.05058526 271.43123945 -140.125 269.625 C-140.80820312 269.03976562 -141.49140625 268.45453125 -142.1953125 267.8515625 C-144.00654755 265.99328239 -144.98652635 264.3717373 -146 262 C-146.66 262 -147.32 262 -148 262 C-149.78506838 260.01964209 -151.43215869 258.04071808 -153.0625 255.9375 C-153.55202148 255.3069873 -154.04154297 254.67647461 -154.54589844 254.02685547 C-172.55737525 230.37583449 -183.13458371 202.77994435 -179.74804688 172.76708984 C-179.12884911 168.42552939 -178.15164188 164.22767237 -177 160 C-176.73316406 158.96875 -176.46632812 157.9375 -176.19140625 156.875 C-173.80008534 148.71262464 -169.61369757 142.05791517 -165 135 C-164.525625 134.17628906 -164.05125 133.35257813 -163.5625 132.50390625 C-155.44839041 119.50104563 -143.05692354 107.8664504 -130 100 C-129.18789063 99.48824219 -128.37578125 98.97648437 -127.5390625 98.44921875 C-113.91129032 90 -113.91129032 90 -109 90 C-109 89.34 -109 88.68 -109 88 C-102.62382378 86.21683208 -96.22693925 84.5147136 -89.8125 82.875 C-89.16023438 82.70452148 -88.50796875 82.53404297 -87.8359375 82.35839844 C-83.22636081 81.19209206 -78.71572841 80.51406161 -74 80 C-72.6874258 82.62514841 -72.95226114 84.46293936 -73.04296875 87.3984375 C-73.51041079 108.71967625 -73.02277596 129.22116687 -58.8125 146.375 C-49.73156035 155.75763199 -39.72286872 158.60160714 -27 159 C-19.07695252 158.59292613 -10.0947329 156.10439029 -4.34375 150.33984375 C-3 149 -3 149 -1 149 C-0.58041016 148.13761719 -0.58041016 148.13761719 -0.15234375 147.2578125 C0.96355391 145.07140963 2.18695752 142.98650786 3.4375 140.875 C9.82635211 129.2125096 10.72704072 116.68604184 7.875 103.75 C3.5727952 89.19322485 -5.04447029 77.04866696 -18 69 C-18.65742188 68.5565625 -19.31484375 68.113125 -19.9921875 67.65625 C-27.10264346 63.28966294 -34.94317692 61.76953538 -43 60 C-44.0661606 45.29586841 -28.94438242 28.4668305 -20 18 C-4.29388817 0 -4.29388817 0 0 0 Z " fill="#FE6013" transform="translate(405,252)"/>
<path d="M0 0 C20.5348389 -0.96090234 50.09143587 0.79950515 66.2265625 14.953125 C71.19016712 20.30483039 73.50032745 25.32958767 73.328125 32.77734375 C72.51467445 38.28750281 70.06394082 43.40408877 67 48 C66.34 48 65.68 48 65 48 C65 48.66 65 49.32 65 50 C31.82037017 77.38016512 -25.16434369 74.18782914 -65.63989258 74.18530273 C-69.53152524 74.18748265 -73.4228705 74.20569077 -77.31445312 74.22460938 C-102.84716632 74.28219991 -128.10307001 72.99370537 -153 67 C-153 66.34 -153 65.68 -153 65 C-153.66 64.67 -154.32 64.34 -155 64 C-152.54101223 64.28678021 -150.08292407 64.57934306 -147.625 64.875 C-146.94566406 64.95363281 -146.26632812 65.03226563 -145.56640625 65.11328125 C-141.80694234 65.57003855 -138.13285833 66.16500097 -134.43164062 66.97021484 C-114.01995401 71.0816439 -92.55525239 70.32166306 -71.81494141 70.26074219 C-67.91400913 70.24936861 -64.01335058 70.25611588 -60.11242771 70.26762867 C5.68395196 72.12184328 5.68395196 72.12184328 63.60546875 46.52734375 C68.35141045 41.30819966 69.52991713 35.11706361 69.296875 28.265625 C68.6370053 23.22977729 66.94700777 19.61236581 63 16.34375 C48.040882 6.6990555 31.01487787 5.07546033 13.75 3.375 C12.40751616 3.23993996 11.06506796 3.10452517 9.72265625 2.96875 C6.48210191 2.64236323 3.24123798 2.31951358 0 2 C0 1.34 0 0.68 0 0 Z " fill="#FD6014" transform="translate(553,734)"/>
<path d="M0 0 C2.21709199 -0.00067642 4.4341839 -0.00164923 6.65127563 -0.00289917 C11.25466634 -0.00435844 15.8580374 -0.00227816 20.46142578 0.00244141 C26.31759376 0.00815793 32.17371609 0.0048362 38.02988243 -0.00113106 C42.59246151 -0.00476765 47.15502999 -0.00358427 51.71760941 -0.00100327 C53.87585073 -0.0003436 56.03409308 -0.00112819 58.19233322 -0.00348282 C92.91663468 -0.03309154 92.91663468 -0.03309154 98.1015625 3.1328125 C96.43647392 3.12615067 96.43647392 3.12615067 94.73774719 3.11935425 C20.88923751 2.59536836 20.88923751 2.59536836 -52.8984375 5.1328125 C-53.69864319 5.17855408 -54.49884888 5.22429565 -55.32330322 5.27142334 C-69.55534588 5.06566336 -69.55534588 5.06566336 -82.8984375 8.1328125 C-77.47938737 12.62552927 -71.88865764 15.04986785 -65.2109375 17.0078125 C-64.48656494 17.22268311 -63.76219238 17.43755371 -63.01586914 17.65893555 C-58.87560695 18.80829626 -55.23532585 19.36502384 -50.8984375 19.1328125 C-50.8984375 19.7928125 -50.8984375 20.4528125 -50.8984375 21.1328125 C-49.84785156 21.18179688 -48.79726563 21.23078125 -47.71484375 21.28125 C-40.23968259 21.66657676 -33.16247553 22.18708803 -25.8984375 24.1328125 C-25.8984375 24.4628125 -25.8984375 24.7928125 -25.8984375 25.1328125 C-44.22817041 26.05099949 -64.82638295 23.46851617 -80.8984375 14.1328125 C-82.0121875 13.4934375 -83.1259375 12.8540625 -84.2734375 12.1953125 C-87.09751495 9.9763945 -87.94968048 8.54833778 -88.8984375 5.1328125 C-84.93061335 3.92154093 -80.86268454 3.72287327 -76.75 3.4140625 C-75.94219086 3.35126099 -75.13438171 3.28845947 -74.30209351 3.22375488 C-72.58238496 3.09099836 -70.86254139 2.95998112 -69.14257812 2.83056641 C-66.59463295 2.638188 -64.04732323 2.43870516 -61.5 2.23828125 C-40.99801893 0.6538936 -20.561106 -0.02257986 0 0 Z " fill="#FE5F12" transform="translate(473.8984375,756.8671875)"/>
<path d="M0 0 C5.26465395 3.64329313 8.16910479 6.75655431 9.46484375 13.21484375 C10.69369218 22.22217606 8.75505577 30.01163572 3.66796875 37.54296875 C-8.83867814 53.72973242 -24.95978974 64.81563537 -45.6640625 67.54296875 C-53.44640025 68.00340869 -61.24015429 67.8807643 -69.03125 67.7421875 C-70.70284331 61.10148622 -69.00315179 56.45753874 -66.59375 50.1796875 C-66.22757568 49.20604248 -65.86140137 48.23239746 -65.48413086 47.22924805 C-60.5840791 34.56212644 -54.14633953 23.90136911 -45.03125 13.7421875 C-44.44601562 13.08605469 -43.86078125 12.42992187 -43.2578125 11.75390625 C-32.39179397 0.25021057 -15.28958735 -9.46778294 0 0 Z M-42.15625 13.3046875 C-55.83908673 27.65973966 -63.02134717 45.88001878 -68.03125 64.7421875 C-52.11305838 67.95031535 -32.29294886 63.7762518 -18.5859375 55.21484375 C-7.08805837 47.46168672 3.16844511 38.60527154 6.96875 24.7421875 C7.80792255 17.33600185 7.59319134 11.70528291 2.96875 5.7421875 C-1.76507053 0.67023693 -6.22865294 -0.43807508 -13.03125 -1.2578125 C-24.40106095 -1.2578125 -34.23627272 5.86211225 -42.15625 13.3046875 Z " fill="#FE6113" transform="translate(436.03125,494.2578125)"/>
<path d="M0 0 C1.94139568 0.01509866 3.88280293 0.02877775 5.82421875 0.04101562 C10.50810688 0.07355432 15.19141929 0.12503944 19.875 0.1875 C19.875 0.8475 19.875 1.5075 19.875 2.1875 C19.04178223 2.16655273 18.20856445 2.14560547 17.35009766 2.12402344 C-11.32153806 1.50286363 -39.50294194 3.50762581 -66.125 15.1875 C-67.27613281 15.64382812 -68.42726563 16.10015625 -69.61328125 16.5703125 C-84.71774744 22.67195262 -98.87726572 31.43232115 -111.125 42.1875 C-111.92679687 42.88101563 -112.72859375 43.57453125 -113.5546875 44.2890625 C-131.795309 60.37035809 -146.63331305 78.68868649 -156.125 101.1875 C-157.22197315 103.58663553 -158.32629282 105.98242398 -159.4375 108.375 C-159.94925781 109.48230469 -160.46101563 110.58960938 -160.98828125 111.73046875 C-161.55095703 112.94669922 -161.55095703 112.94669922 -162.125 114.1875 C-162.455 114.1875 -162.785 114.1875 -163.125 114.1875 C-160.74306022 86.74996578 -135.37694739 57.98170707 -115.1875 40.9375 C-81.45622421 13.84188502 -43.28415829 -0.59524141 0 0 Z " fill="#FE5F11" transform="translate(500.125,193.8125)"/>
<path d="M0 0 C0.66 0 1.32 0 2 0 C-1.9814563 19.81360016 -11.37233331 39.51976393 -26.3671875 53.43359375 C-28.16969007 55.1627888 -29.71931639 57.01456443 -31.3125 58.9375 C-35.36769411 63.62631819 -40.04737414 67.30027056 -45 71 C-45.886875 71.66773438 -46.77375 72.33546875 -47.6875 73.0234375 C-54.90738206 78.28793484 -54.90738206 78.28793484 -60 79 C-60 79.66 -60 80.32 -60 81 C-62.49882727 82.10688344 -64.99899729 83.21055111 -67.5 84.3125 C-68.54414062 84.7755957 -68.54414062 84.7755957 -69.609375 85.24804688 C-74.35330507 87.3344976 -79.13337288 89.21778293 -84 91 C-84.73347656 91.2784375 -85.46695313 91.556875 -86.22265625 91.84375 C-99.29099991 96.50507003 -112.20281667 97.53843413 -125.9375 97.4375 C-127.13734024 97.43592896 -127.13734024 97.43592896 -128.36141968 97.43432617 C-142.21489837 97.39705085 -155.45661755 96.07739042 -169 93 C-169 92.34 -169 91.68 -169 91 C-162.16102968 90.8318286 -155.75544629 91.49115479 -149 92.5 C-114.24865828 97.30352731 -78.1588112 90.6882192 -49.25 70.0625 C-47.48864485 68.72313619 -45.7386691 67.36868445 -44 66 C-43.05125 65.26652344 -42.1025 64.53304687 -41.125 63.77734375 C-35.43800678 59.27256515 -30.50666989 54.6772335 -26 49 C-25.21882812 48.04351562 -24.43765625 47.08703125 -23.6328125 46.1015625 C-12.28335792 31.98607313 -5.6418251 17.0836573 0 0 Z " fill="#FE5F10" transform="translate(783,443)"/>
<path d="M0 0 C0.33 0 0.66 0 1 0 C1.02578125 0.92296875 1.0515625 1.8459375 1.078125 2.796875 C2.66064774 39.19489803 16.97159793 73.28566613 43 99 C44.22396484 100.27617188 44.22396484 100.27617188 45.47265625 101.578125 C64.6612505 121.37450277 90.70551144 135.64253807 117.13623047 143.20019531 C122.82775705 144.82775705 122.82775705 144.82775705 125 147 C118.99044819 147.37760553 114.37482284 146.11130212 108.75 144.0625 C107.44977905 143.59650391 107.44977905 143.59650391 106.12329102 143.12109375 C86.57019329 135.92914976 70.1079679 125.83351401 53.63476562 113.2175293 C52.1264237 112.09415695 50.56484325 111.04322883 49 110 C49 109.34 49 108.68 49 108 C48.40574219 107.73058594 47.81148437 107.46117187 47.19921875 107.18359375 C39.66384295 103.12814283 34.14461885 94.59761466 29 88 C28.20464844 86.98292969 27.40929687 85.96585938 26.58984375 84.91796875 C8.16655219 60.64088995 -2.79108082 31.62059333 -1 1 C-0.67 0.67 -0.34 0.34 0 0 Z " fill="#FD5F13" transform="translate(202,433)"/>
<path d="M0 0 C5.92210617 -0.36914985 10.36528529 0.8271185 15.875 2.9375 C16.70217529 3.25033936 17.52935059 3.56317871 18.3815918 3.88549805 C35.52931459 10.56632281 50.66029266 19.99608784 64.25 32.375 C64.79946289 32.87491455 65.34892578 33.3748291 65.91503906 33.88989258 C68.56504517 36.38131895 70.67101043 38.58028293 72 42 C72.66 42 73.32 42 74 42 C76.11667611 44.30159499 77.83340524 46.94109041 79.625 49.5 C80.16261963 50.26594482 80.70023926 51.03188965 81.25415039 51.82104492 C86.3146009 59.19263883 90.34391543 66.85590743 94 75 C94.49242187 76.0828125 94.98484375 77.165625 95.4921875 78.28125 C98.29528593 84.71676593 100.46504906 91.15028141 102 98 C102.20625 98.87914062 102.4125 99.75828125 102.625 100.6640625 C104.13726943 108.45645081 104.20825429 116.20723047 104.25 124.125 C104.25926514 125.22142822 104.26853027 126.31785645 104.27807617 127.44750977 C104.2516039 134.35261915 104.02433117 141.34568448 102 148 C101.34 148.33 100.68 148.66 100 149 C99.8379838 140.05310531 99.8379838 140.05310531 100.5 135.75 C103.09862242 116.26033187 99.81938668 91.26299014 90.07421875 73.9296875 C89 72 89 72 87.76953125 69.3203125 C83.87705685 60.92477947 78.84394451 54.09688621 73 47 C72.39027344 46.25878906 71.78054688 45.51757812 71.15234375 44.75390625 C69.47979399 42.78875914 67.75937882 40.88774552 66 39 C65.27554688 38.21109375 64.55109375 37.4221875 63.8046875 36.609375 C57.50093185 30.00157969 50.62796774 24.91728095 43 20 C42.21367188 19.46761719 41.42734375 18.93523437 40.6171875 18.38671875 C29.38088043 11.1242276 16.14231087 6.2574994 3.2734375 2.7890625 C1 2 1 2 0 0 Z " fill="#FD5F12" transform="translate(709,294)"/>
<path d="M0 0 C1.3912207 0.39155273 1.3912207 0.39155273 2.81054688 0.79101562 C7.24331603 2.08537143 10.57422344 3.22695769 14.1875 6.1875 C8.2444459 5.91362654 2.93575432 4.89905565 -2.75 3.125 C-8.79722019 1.30951359 -14.50725871 0.22776416 -20.8125 1.1875 C-24.21734981 2.95493371 -24.21734981 2.95493371 -24.625 6.9375 C-24.96159319 10.80130933 -24.54003027 13.65017612 -22.8125 17.1875 C-19.53753188 20.23471255 -15.7665174 21.38152256 -11.5625 22.625 C-10.8499707 22.83890381 -10.13744141 23.05280762 -9.40332031 23.27319336 C-7.20964418 23.92312671 -5.01166994 24.55644257 -2.8125 25.1875 C-1.018125 25.71730469 -1.018125 25.71730469 0.8125 26.2578125 C34.43444427 35.46037052 71.54266677 36.86743805 105.1875 27.1875 C105.1875 27.8475 105.1875 28.5075 105.1875 29.1875 C71.51407808 45.63265954 25.88400931 36.56592926 -8.3125 27.1875 C-9.15425781 26.96288086 -9.99601563 26.73826172 -10.86328125 26.50683594 C-17.694868 24.5451 -24.01656557 22.07187953 -27.875 15.875 C-29.05026325 11.25229787 -28.93551726 8.82930469 -27.8125 4.1875 C-21.12318552 -6.42313676 -10.27020605 -3.08324852 0 0 Z " fill="#FD6114" transform="translate(598.8125,527.8125)"/>
<path d="M0 0 C3.35764522 2.95588395 6.60298162 6.01840036 9.8125 9.13378906 C11.14844506 10.41519671 12.52092174 11.65824424 13.89697266 12.89648438 C23.93035152 22.20976428 31.40299325 34.25398402 37.28369141 46.54492188 C34.09773248 45.19989825 32.60590414 43.99186137 30.84619141 41.02539062 C30.42595703 40.33251953 30.00572266 39.63964844 29.57275391 38.92578125 C29.14736328 38.20197266 28.72197266 37.47816406 28.28369141 36.73242188 C24.88140394 31.02330059 24.88140394 31.02330059 20.97119141 25.65820312 C19.28369141 23.54492188 19.28369141 23.54492188 19.28369141 21.54492188 C18.62369141 21.54492188 17.96369141 21.54492188 17.28369141 21.54492188 C15.87353516 20.11132812 15.87353516 20.11132812 14.22119141 18.10742188 C-6.53322918 -6.08484752 -35.45610021 -21.54098465 -66.71630859 -27.45507812 C-67.62767578 -27.63167969 -68.53904297 -27.80828125 -69.47802734 -27.99023438 C-77.86445452 -29.45916137 -86.02447102 -29.7648001 -94.50927734 -29.71582031 C-96.713984 -29.70508944 -98.91787625 -29.71578877 -101.12255859 -29.72851562 C-108.88821058 -29.73513628 -116.28449351 -29.30266799 -123.95141602 -27.89599609 C-127.91892691 -27.26329634 -131.70753045 -27.31918734 -135.71630859 -27.45507812 C-135.38630859 -28.11507812 -135.05630859 -28.77507812 -134.71630859 -29.45507812 C-132.03812637 -30.07978804 -129.4263352 -30.584249 -126.71630859 -31.01757812 C-125.98541016 -31.14326172 -125.25451172 -31.26894531 -124.50146484 -31.3984375 C-80.76151776 -38.73967642 -34.21849365 -29.01027342 0 0 Z " fill="#FD6216" transform="translate(599.71630859375,250.455078125)"/>
<path d="M0 0 C1.52135653 2.32957719 2.76400955 4.52801911 4 7 C11.2310357 20.59543042 24.06053247 27.48904772 38 33 C38 33.33 38 33.66 38 34 C26.75275523 33.77946579 17.13674464 26.93891794 9.2265625 19.40234375 C4.34451811 14.1348748 0.59851747 8.68785106 -2 2 C-28.94793521 4.78031737 -55.889831 7.58268546 -82.75 11.125 C-83.69389587 11.24943481 -84.63779175 11.37386963 -85.61029053 11.5020752 C-94.65469988 12.70006978 -103.69213085 13.94001982 -112.71875 15.265625 C-114.01200195 15.45495605 -115.30525391 15.64428711 -116.63769531 15.83935547 C-118.92992401 16.17925475 -121.22110212 16.52638025 -123.51074219 16.88330078 C-129.72674799 17.81964095 -135.71471874 18.20236046 -142 18 C-141.67 17.34 -141.34 16.68 -141 16 C-139.18994141 15.51342773 -139.18994141 15.51342773 -136.8515625 15.18359375 C-136.01109375 15.05919922 -135.170625 14.93480469 -134.3046875 14.80664062 C-133.42039063 14.68482422 -132.53609375 14.56300781 -131.625 14.4375 C-129.88770333 14.18840232 -128.1507087 13.93718658 -126.4140625 13.68359375 C-125.6401416 13.57587646 -124.8662207 13.46815918 -124.06884766 13.35717773 C-121.8125899 13.02098514 -121.8125899 13.02098514 -119 12 C-117.60046663 11.81148788 -116.19567272 11.66036877 -114.7890625 11.53515625 C-113.95503906 11.45716797 -113.12101562 11.37917969 -112.26171875 11.29882812 C-110.54300472 11.14478042 -108.8242563 10.99111587 -107.10546875 10.83789062 C-101.15805936 10.28116966 -95.28811111 9.45819006 -89.38867188 8.52416992 C-83.58459348 7.62637768 -77.76221029 6.87528225 -71.9375 6.125 C-71.28935333 6.04140228 -70.64120667 5.95780457 -69.97341919 5.87167358 C-58.63983923 4.41510318 -47.2932023 3.08420589 -35.9375 1.8125 C-35.18999481 1.72800598 -34.44248962 1.64351196 -33.67233276 1.55645752 C-5.18631811 -1.6520727 -5.18631811 -1.6520727 0 0 Z " fill="#FD5F13" transform="translate(359,764)"/>
<path d="M0 0 C0.79825195 0.0558728 1.59650391 0.11174561 2.41894531 0.16931152 C4.26198863 0.30143024 6.10442089 0.44224413 7.94628906 0.58984375 C11.50211939 0.87387321 15.05934986 1.13297923 18.6171875 1.390625 C25.65904142 1.90452724 32.69837165 2.44817406 39.73730469 3.00048828 C43.43432738 3.2905217 47.13177006 3.57478857 50.8293457 3.85767365 C53.69995732 4.07808966 56.57028952 4.30198546 59.44055176 4.52690125 C60.80561059 4.63335051 62.17076359 4.73859953 63.53601074 4.84260559 C65.42793338 4.98714934 67.31944815 5.13700208 69.2109375 5.28710938 C70.8204126 5.41249084 70.8204126 5.41249084 72.46240234 5.54040527 C75.125 5.84375 75.125 5.84375 78.125 6.84375 C78.125 7.50375 78.125 8.16375 78.125 8.84375 C71.4998295 8.56334336 64.87505638 8.27476143 58.25048828 7.98046875 C55.4262865 7.85692923 52.60189398 7.74022245 49.77734375 7.625 C41.0165583 7.24917253 32.3549079 6.61415325 23.64697266 5.57885742 C16.14911256 4.69680523 8.66691911 4.19134113 1.125 3.84375 C0.03574219 3.77800781 -1.05351563 3.71226562 -2.17578125 3.64453125 C-7.60609258 3.41089748 -7.60609258 3.41089748 -12.5625 5.34375 C-14.41943244 8.88076416 -14.5794155 11.99243484 -13.875 15.84375 C-12.80749153 18.93046169 -12.80749153 18.93046169 -9.875 20.84375 C-1.88798907 22.80008012 6.47182802 23.36878633 14.64453125 24.09765625 C16.35874519 24.25632423 16.35874519 24.25632423 18.10758972 24.41819763 C21.7171934 24.75169253 25.327296 25.07932369 28.9375 25.40625 C32.56546179 25.73768628 36.19329842 26.07040131 39.82096863 26.40501404 C42.06680264 26.61187462 44.31281806 26.81677811 46.55903625 27.01942444 C51.77447073 27.49701741 56.94975924 28.03730818 62.125 28.84375 C62.125 29.17375 62.125 29.50375 62.125 29.84375 C46.8497488 30.40775927 31.88232884 29.48816624 16.6875 28.03125 C15.78782501 27.94838745 14.88815002 27.8655249 13.96121216 27.78015137 C11.34903231 27.53657123 8.7389625 27.27700362 6.12890625 27.01171875 C5.35458252 26.93968735 4.58025879 26.86765594 3.7824707 26.79344177 C-2.94615907 26.07089609 -9.34552308 24.68816026 -14.875 20.65625 C-17.45606934 17.02662125 -18.14356455 14.26667251 -17.875 9.84375 C-16.875 6.03125 -16.875 6.03125 -14.875 2.84375 C-9.75088604 0.04848833 -5.81487618 -0.51045879 0 0 Z " fill="#FD6013" transform="translate(681.875,741.15625)"/>
<path d="M0 0 C0.99 0.495 0.99 0.495 2 1 C4.72806273 30.78749579 -3.04436803 56.50944829 -22.2109375 79.671875 C-26.10437928 84.19782537 -26.10437928 84.19782537 -28 86 C-28.66 86 -29.32 86 -30 86 C-30.495 87.485 -30.495 87.485 -31 89 C-33.09188585 90.73832768 -35.15399549 92.3190486 -37.375 93.875 C-38.00623779 94.31972656 -38.63747559 94.76445312 -39.2878418 95.22265625 C-51.67935396 103.75364557 -63.93075047 107.34546871 -79 106 C-87.21842998 104.15504633 -94.08207465 100.26160301 -99.78125 94.0625 C-101 92 -101 92 -100.6875 89.75 C-100.460625 89.1725 -100.23375 88.595 -100 88 C-99.67128906 88.51949219 -99.34257813 89.03898437 -99.00390625 89.57421875 C-94.08001222 96.79326122 -88.46702364 100.41268291 -79.9375 102.3125 C-65.51857687 104.61598388 -52.78389485 100.3914891 -40.66796875 92.4765625 C-25.98108336 81.62679131 -15.30963178 67.68443835 -8 51 C-7.64292969 50.18789063 -7.28585937 49.37578125 -6.91796875 48.5390625 C-0.96257247 33.68402909 -0.59097694 18.64013042 -1.06591797 2.86328125 C-1 1 -1 1 0 0 Z " fill="#FE6113" transform="translate(667,317)"/>
<path d="M0 0 C36.83677179 -2.34463187 74.88620224 17.71497561 101.9934082 41.39819336 C116.59220741 54.50855295 131.06291705 71.40626281 138 90 C138.13061523 92.79174805 138.13061523 92.79174805 138 95 C134.78804279 93.3940214 133.96907535 90.00970434 132.5 86.875 C125.86624773 73.24295309 117.57495869 61.81360373 107 51 C105.70642578 49.61361328 105.70642578 49.61361328 104.38671875 48.19921875 C94.40638648 37.7457448 82.93011062 29.44776907 70 23 C68.77526681 22.35955251 67.55136339 21.71751668 66.328125 21.07421875 C45.26491205 10.11365274 23.46684373 4.23227523 0 1 C0 0.67 0 0.34 0 0 Z " fill="#FD5E11" transform="translate(521,195)"/>
<path d="M0 0 C9.05530946 0.39839055 18.02759701 0.64613271 27.0859375 0.3046875 C30.76241636 0.61028902 33.05793648 1.63869905 36.1875 3.5625 C38.57219886 6.94723387 39.1875 8.91712026 39.1875 13.0625 C37.73008154 18.16346462 35.63490196 21.05566821 31.1953125 23.7890625 C18.49574295 29.73263209 2.21258793 27.60474333 -11.41455078 26.89331055 C-14.20429942 26.74913178 -16.99447495 26.62272236 -19.78515625 26.49804688 C-21.5938014 26.40990251 -23.40239755 26.32074572 -25.2109375 26.23046875 C-26.02783051 26.19390671 -26.84472351 26.15734467 -27.68637085 26.11967468 C-33.52963182 25.80013243 -39.10462696 24.83991895 -44.8125 23.5625 C-44.8125 23.2325 -44.8125 22.9025 -44.8125 22.5625 C-42.08326141 22.53493193 -39.35431461 22.51539501 -36.625 22.5 C-35.87541016 22.49162109 -35.12582031 22.48324219 -34.35351562 22.47460938 C-29.76442947 22.45540818 -25.25274938 22.66271077 -20.6796875 23.0546875 C-13.82852987 23.61780321 -7.0091363 23.74864076 -0.13647461 23.74780273 C1.88383463 23.75000965 3.90361314 23.76832008 5.92382812 23.78710938 C13.29315003 23.79800537 20.03737364 23.33063519 27.1875 21.5625 C28.07655029 21.42739014 28.96560059 21.29228027 29.8815918 21.15307617 C30.6425415 20.95818604 31.40349121 20.7632959 32.1875 20.5625 C33.49818333 18.11961372 33.49818333 18.11961372 34.1875 15.5625 C34.5175 15.2325 34.8475 14.9025 35.1875 14.5625 C35.25929964 13.04321962 35.27142007 11.52082518 35.25 10 C35.24097656 9.17371094 35.23195313 8.34742188 35.22265625 7.49609375 C35.21105469 6.85800781 35.19945312 6.21992187 35.1875 5.5625 C31.52698343 4.34232781 28.1007727 4.34991909 24.28515625 4.28125 C23.49891373 4.26315781 22.7126712 4.24506561 21.90260315 4.22642517 C20.22110128 4.18795271 18.5395539 4.15142901 16.85797119 4.1166687 C12.52876855 4.02674927 8.19993596 3.92210731 3.87109375 3.81640625 C2.6032605 3.785718 2.6032605 3.785718 1.30981445 3.75440979 C-7.7403464 3.52754667 -16.77622234 3.10839338 -25.8125 2.5625 C-26.1425 1.9025 -26.4725 1.2425 -26.8125 0.5625 C-17.79797531 -0.33251286 -9.04201895 -0.43725435 0 0 Z " fill="#FC5D12" transform="translate(789.8125,748.4375)"/>
<path d="M0 0 C31.3164486 -0.89070996 61.25571697 6.81885809 84.671875 28.8359375 C86.6958385 30.7172727 88.77460499 32.41051005 90.9375 34.125 C105.04923577 46.49771379 117.41864847 68.18648473 119.30078125 87.0078125 C119.3125 89.5 119.3125 89.5 119 93 C116.77400822 90.77400822 116.51316395 89.76183197 115.7734375 86.7734375 C115.43940918 85.48469727 115.43940918 85.48469727 115.09863281 84.16992188 C114.85983398 83.24759766 114.62103516 82.32527344 114.375 81.375 C110.07726408 65.71095379 103.33817977 53.43757123 93 41 C92.51273438 40.34902344 92.02546875 39.69804687 91.5234375 39.02734375 C77.27863603 20.5440584 49.97892816 7.46343748 27.26708984 4.26025391 C17.87700103 3.18230488 8.43091655 2.59249047 -1 2 C-0.67 1.34 -0.34 0.68 0 0 Z " fill="#FE6013" transform="translate(668,314)"/>
<path d="M0 0 C0.33 0 0.66 0 1 0 C1.27345955 6.07080206 0.50177417 10.78398407 -1.5 16.5 C-1.76627197 17.27609619 -2.03254395 18.05219238 -2.30688477 18.85180664 C-9.70277269 39.67244793 -22.03027766 56.91953941 -37 73 C-37.71285156 73.79019531 -38.42570313 74.58039063 -39.16015625 75.39453125 C-46.25508223 82.92756586 -54.46547513 88.73173962 -62.95703125 94.58886719 C-64.62857685 95.74344816 -66.28526568 96.91951188 -67.9375 98.1015625 C-73.53479593 101.9322119 -79.47851414 104.69786183 -85.6875 107.375 C-86.48406006 107.72151611 -87.28062012 108.06803223 -88.10131836 108.42504883 C-93.12214752 110.5065759 -97.5791265 111.56633012 -103 112 C-103 111.34 -103 110.68 -103 110 C-101.99646484 109.70609375 -101.99646484 109.70609375 -100.97265625 109.40625 C-78.44033115 102.38947225 -59.28138843 89.89193006 -42 74 C-41.19433594 73.27683594 -40.38867188 72.55367187 -39.55859375 71.80859375 C-20.47988473 53.82204696 -8.58653826 29.63402364 -2.015625 4.61328125 C-1 1 -1 1 0 0 Z " fill="#FD5F12" transform="translate(808,444)"/>
<path d="M0 0 C0 0.66 0 1.32 0 2 C-0.58265625 2.06993164 -1.1653125 2.13986328 -1.765625 2.21191406 C-37.98102192 6.63918939 -68.12126648 18.68139198 -95 44 C-96.08861328 44.97453125 -96.08861328 44.97453125 -97.19921875 45.96875 C-108.54327422 56.55925062 -116.6925671 70.43826424 -124 84 C-125.13668493 80.58901234 -125.05016061 80.11334493 -123.48046875 76.56640625 C-122.73249118 75.22254213 -121.96696655 73.88834807 -121.1875 72.5625 C-120.57116699 71.49733154 -120.57116699 71.49733154 -119.94238281 70.41064453 C-109.84419903 53.3446375 -96.2779119 38.31637717 -80 27 C-78.94683594 26.25363281 -77.89367187 25.50726563 -76.80859375 24.73828125 C-54.12302818 9.39137562 -27.59013305 -0.80100386 0 0 Z " fill="#FD5F11" transform="translate(336,308)"/>
<path d="M0 0 C6.31121503 1.0992895 12.06338584 2.58137942 18 5 C18 5.66 18 6.32 18 7 C18.721875 7.2475 19.44375 7.495 20.1875 7.75 C28.01125707 11.22722537 32.90722894 18.12825582 36.375 25.75 C38.94871011 32.77904021 39.46964929 40.46749449 36.4375 47.4375 C34.03671622 51.41665375 31.37634825 54.28547358 27 56 C21.0871009 57.0654605 15.72299096 57.05953901 10.625 53.625 C2.51715927 46.41053881 -1.47743199 36.33004458 -2.14794922 25.64160156 C-2.24840887 23.00965866 -2.2956137 20.38378002 -2.3125 17.75 C-2.31813965 16.91033691 -2.3237793 16.07067383 -2.32958984 15.20556641 C-2.2669354 9.83108984 -1.49330968 5.16411475 0 0 Z M2 3 C-1.70548309 16.90321754 -0.85999199 32.22303379 6 45 C9.34321878 49.67106978 12.47912777 52.35734612 18 54 C23.18889145 54.28538903 27.9736164 53.43426837 32 50 C35.72896205 44.27337972 36.5828324 38.251566 35.4375 31.625 C32.71406815 21.21504011 25.88456339 13.4314431 16.9609375 7.6875 C12.21159024 5.11414849 7.29457766 3.93145348 2 3 Z " fill="#FE6013" transform="translate(355,332)"/>
<path d="M0 0 C-1.32454944 2.64909888 -2.28783 2.57356594 -5.0625 3.5 C-17.22762713 8.19500602 -27.67535935 16.02754902 -37 25 C-38.41068056 26.21531652 -39.82706024 27.42406024 -41.25 28.625 C-57.3107678 42.69024154 -68.95673646 63.99777285 -71.37109375 85.26953125 C-71.49300442 90.39695067 -70.74845646 95.10180259 -69.33984375 100.02734375 C-68.94735263 102.3055968 -69.30155457 103.8167475 -70 106 C-75.75138675 96.99782943 -75.07543713 85.54852164 -73.38671875 75.265625 C-69.77828771 61.4677477 -62.77254406 49.13640324 -54 38 C-53.34386719 37.11828125 -52.68773437 36.2365625 -52.01171875 35.328125 C-48.48349057 30.62382075 -48.48349057 30.62382075 -47 29 C-46.34 29 -45.68 29 -45 29 C-45 28.34 -45 27.68 -45 27 C-37.10926603 18.62189717 -26.88069116 11.97533192 -17.0625 6.0625 C-16.43593506 5.68496582 -15.80937012 5.30743164 -15.16381836 4.91845703 C-10.06045793 1.90953932 -5.99915431 -0.34280882 0 0 Z " fill="#FE6013" transform="translate(635,299)"/>
<path d="M0 0 C-13.77446242 13.77446242 -68.18123203 7.21101143 -86.75 7.25 C-88.065448 7.25526703 -89.380896 7.26053406 -90.73620605 7.26596069 C-94.5065412 7.27763966 -98.27653772 7.27437262 -102.046875 7.265625 C-103.19341553 7.26957779 -104.33995605 7.27353058 -105.52124023 7.27760315 C-106.57996338 7.2713945 -107.63868652 7.26518585 -108.72949219 7.25878906 C-109.65445496 7.25719788 -110.57941772 7.25560669 -111.53240967 7.25396729 C-114.12638106 6.98699271 -115.76849354 6.31415193 -118 5 C-111.98862609 2.32042198 -105.97700137 2.76545472 -99.53515625 2.83984375 C-98.31082382 2.84504532 -97.08649139 2.85024689 -95.82505798 2.85560608 C-91.90408374 2.87338436 -87.98337295 2.90445013 -84.0625 2.9375 C-62.0749637 3.09673967 -40.22269801 3.16670299 -18.35415649 0.65516663 C-12.22371491 -0.04822254 -6.17018443 -0.22168327 0 0 Z " fill="#FD6114" transform="translate(570,777)"/>
<path d="M0 0 C0.33 0 0.66 0 1 0 C2.0717285 4.65355797 2.45391937 9.31703805 2.875 14.0625 C5.37113181 40.88521928 8.34199671 67.3251604 14.42529297 93.60473633 C14.63041504 94.50216553 14.83553711 95.39959473 15.046875 96.32421875 C15.23088867 97.10885498 15.41490234 97.89349121 15.60449219 98.7019043 C16.030046 101.17458212 16.06756938 103.49577913 16 106 C11.545 106.495 11.545 106.495 7 107 C7 106.34 7 105.68 7 105 C9.31 105 11.62 105 14 105 C13.42655063 102.13275314 13.1385485 101.1385485 11 99 C10.47045898 96.56738281 10.47045898 96.56738281 10.05859375 93.453125 C9.31876086 88.19561982 8.50486756 82.96476784 7.59765625 77.734375 C3.13203974 51.72877941 -0.66418442 26.48222478 0 0 Z " fill="#FD5F12" transform="translate(337,636)"/>
<path d="M0 0 C0.33 0 0.66 0 1 0 C-0.10187855 17.07911752 -10.12028753 32.12028753 -22 44 C-28.77061894 49.86786975 -37.12297906 54.90313347 -46.25 55.5625 C-49.82102714 55.02684593 -52.25243347 54.40652789 -54.9453125 51.91015625 C-57.2530563 47.73057582 -56.39709832 42.6107527 -56 38 C-55.67 38 -55.34 38 -55 38 C-54.87882813 38.68707031 -54.75765625 39.37414062 -54.6328125 40.08203125 C-54.46523438 40.98308594 -54.29765625 41.88414062 -54.125 42.8125 C-53.96257813 43.70582031 -53.80015625 44.59914063 -53.6328125 45.51953125 C-53.08811551 48.22727846 -53.08811551 48.22727846 -51 51 C-44.07376462 52.85524162 -39.22186863 51.37178906 -33 48 C-29.79356786 45.87809638 -26.88739451 43.53527323 -24 41 C-23.40574219 40.49984375 -22.81148437 39.9996875 -22.19921875 39.484375 C-13.04705528 31.15275032 -7.20506195 19.44436468 -3 8 C-2.52240234 6.75089844 -2.52240234 6.75089844 -2.03515625 5.4765625 C-1.34225583 3.65650149 -0.66836623 1.82921285 0 0 Z " fill="#FE5F10" transform="translate(642,343)"/>
<path d="M0 0 C0.66 0.33 1.32 0.66 2 1 C-1.03123159 4.55385773 -3.97643834 6.64622674 -8.125 8.8125 C-29.89678518 20.31127126 -41.65480196 37.99851086 -53 59 C-54.57600635 53.81234113 -52.31497906 50.92211639 -49.859375 46.28125 C-42.47246931 33.24553408 -32.93972667 20.07666456 -20 12 C-19.34 12 -18.68 12 -18 12 C-18 11.34 -18 10.68 -18 10 C-17.13890625 9.58234375 -16.2778125 9.1646875 -15.390625 8.734375 C-10.99166408 6.48421527 -6.82219587 3.90611986 -2.609375 1.328125 C-1.74828125 0.88984375 -0.8871875 0.4515625 0 0 Z " fill="#FE6113" transform="translate(641,320)"/>
<path d="M0 0 C2.93588768 2.93588768 2.95311189 6.42570744 3.5859375 10.3828125 C3.72899323 11.22987762 3.87204895 12.07694275 4.0194397 12.94967651 C4.47892032 15.67357302 4.92797804 18.39903314 5.375 21.125 C5.95852469 24.67058878 6.54837666 28.21498306 7.1484375 31.7578125 C7.29520935 32.62448547 7.4419812 33.49115845 7.59320068 34.38409424 C8.80156924 41.30667591 10.41629877 48.06238086 12.25244141 54.84326172 C13 58 13 58 13 62 C20.26 62 27.52 62 35 62 C31.31422423 63.84288788 30.27877347 64.24701045 26.453125 64.1953125 C25.18662109 64.18564453 25.18662109 64.18564453 23.89453125 64.17578125 C23.02183594 64.15902344 22.14914062 64.14226562 21.25 64.125 C19.91775391 64.11146484 19.91775391 64.11146484 18.55859375 64.09765625 C16.37211942 64.07414577 14.18619906 64.04128499 12 64 C7.10364529 53.74097108 5.39754024 42.41774407 3.375 31.3125 C3.1584375 30.15427734 2.941875 28.99605469 2.71875 27.80273438 C0.99630631 18.44093393 -0.15108638 9.5184421 0 0 Z " fill="#FD5F12" transform="translate(365,675)"/>
<path d="M0 0 C0.33 0 0.66 0 1 0 C1.01981934 0.88743896 1.03963867 1.77487793 1.06005859 2.68920898 C1.46324061 20.05610721 2.05768268 37.37754356 3.20007324 54.71258545 C3.86310476 64.83056648 4.27861991 74.86133094 4 85 C-4.64888471 69.73621275 -1.27624399 42.29773889 -1.25 25.3125 C-1.24913391 24.23005005 -1.24826782 23.1476001 -1.24737549 22.03234863 C-1.2409722 18.93421234 -1.22484438 15.83634512 -1.203125 12.73828125 C-1.1987442 11.79892227 -1.1943634 10.85956329 -1.18984985 9.89173889 C-1.18037323 9.0268132 -1.17089661 8.16188751 -1.16113281 7.27075195 C-1.15430481 6.51518509 -1.14747681 5.75961823 -1.14044189 4.9811554 C-1 3 -1 3 0 0 Z " fill="#FD5E11" transform="translate(361,589)"/>
<path d="M0 0 C0 0.33 0 0.66 0 1 C-0.74459473 1.08040527 -1.48918945 1.16081055 -2.25634766 1.24365234 C-5.712835 1.61832339 -9.16891356 1.99664948 -12.625 2.375 C-14.38070312 2.56449219 -14.38070312 2.56449219 -16.171875 2.7578125 C-22.08053541 3.40711584 -27.96431575 4.12308738 -33.84375 5 C-41.82984811 6.16774153 -49.83900528 6.90492224 -57.875 7.625 C-59.35289429 7.76009207 -60.83075909 7.89550718 -62.30859375 8.03125 C-65.87206529 8.35787308 -69.43591003 8.68018686 -73 9 C-72 7 -72 7 -69.01977539 5.95556641 C-64.62493149 4.81161018 -60.18689288 4.24540173 -55.68359375 3.7109375 C-54.79727264 3.60256058 -53.91095154 3.49418365 -52.99777222 3.38252258 C-50.1452724 3.03828977 -47.29164471 2.70530019 -44.4375 2.375 C-42.989767 2.20491928 -42.989767 2.20491928 -41.51278687 2.03140259 C-27.61879787 0.41461012 -13.99969583 -0.74554593 0 0 Z " fill="#FD6113" transform="translate(342,742)"/>
<path d="M0 0 C3.3 0.33 6.6 0.66 10 1 C10.92280497 7.75614262 11.0067623 14.13992709 10.66015625 20.94140625 C10.61434921 21.94968979 10.56854218 22.95797333 10.52134705 23.99681091 C10.37497284 27.18572058 10.21889729 30.3740678 10.0625 33.5625 C9.96094457 35.73760024 9.86002679 37.91273034 9.75976562 40.08789062 C9.51388148 45.39229474 9.26005206 50.69627259 9 56 C8.34 55.67 7.68 55.34 7 55 C6.97517068 49.02262673 6.95707891 43.04528389 6.94506836 37.06787109 C6.94005811 35.03694129 6.93324809 33.00601506 6.92456055 30.97509766 C6.91234953 28.04588943 6.90673847 25.11672915 6.90234375 22.1875 C6.89718246 21.28821777 6.89202118 20.38893555 6.88670349 19.46240234 C6.88624272 14.21430933 7.23729846 9.19375999 8 4 C7.05125 3.855625 6.1025 3.71125 5.125 3.5625 C2 3 2 3 0 2 C0 1.34 0 0.68 0 0 Z " fill="#FE6619" transform="translate(328,579)"/>
<path d="M0 0 C0 0.66 0 1.32 0 2 C-0.53141602 2.15968262 -1.06283203 2.31936523 -1.61035156 2.48388672 C-19.65435305 7.98981865 -36.49146116 14.97332601 -51.56640625 26.48046875 C-52.77103516 27.23263672 -52.77103516 27.23263672 -54 28 C-54.99 27.67 -55.98 27.34 -57 27 C-44.00723154 16.25662557 -29.50957222 8.0406238 -13.5625 2.625 C-12.79268799 2.36187012 -12.02287598 2.09874023 -11.22973633 1.82763672 C-7.37936352 0.5716305 -4.10496901 -0.34276083 0 0 Z " fill="#FD5F11" transform="translate(463,223)"/>
<path d="M0 0 C1.14668152 0.03199493 1.14668152 0.03199493 2.31652832 0.06463623 C4.49904354 0.12782696 6.68113006 0.19880628 8.86328125 0.2734375 C10.13083252 0.31645996 11.39838379 0.35948242 12.7043457 0.40380859 C15.6875 0.625 15.6875 0.625 17.6875 1.625 C17.6875 2.285 17.6875 2.945 17.6875 3.625 C-3.7625 3.295 -25.2125 2.965 -47.3125 2.625 C-47.3125 2.295 -47.3125 1.965 -47.3125 1.625 C-31.87226419 -1.35203893 -15.64261106 -0.45925302 0 0 Z " fill="#FE5D10" transform="translate(534.3125,732.375)"/>
<path d="M0 0 C2.55403291 0.010061 5.1080697 0.01918127 7.66210938 0.02734375 C13.83732629 0.04908432 20.01239416 0.08230925 26.1875 0.125 C26.1875 0.455 26.1875 0.785 26.1875 1.125 C0.82714964 2.62665224 -24.40741462 3.426999 -49.8125 3.125 C-49.8125 2.795 -49.8125 2.465 -49.8125 2.125 C-33.17710282 0.11291882 -16.74157774 -0.11616202 0 0 Z " fill="#FE5C0E" transform="translate(453.8125,733.875)"/>
<path d="M0 0 C-2.19592948 2.19592948 -2.94536168 2.38416556 -5.88671875 2.96484375 C-6.66080078 3.12533203 -7.43488281 3.28582031 -8.23242188 3.45117188 C-9.84960227 3.77152026 -11.46678959 4.09183364 -13.08398438 4.41210938 C-21.6037047 5.9924983 -21.6037047 5.9924983 -28.5 10.75 C-29.26121155 14.17545197 -28.90581342 16.61829657 -28 20 C-25.30062173 22.69937827 -22.47727891 24.45454271 -19 26 C-22.1875 26.3125 -22.1875 26.3125 -26 26 C-28.875 23.5625 -28.875 23.5625 -31 21 C-31.33 20.67 -31.66 20.34 -32 20 C-32.16796875 18.07421875 -32.16796875 18.07421875 -32.1875 15.6875 C-32.20167969 14.90761719 -32.21585938 14.12773438 -32.23046875 13.32421875 C-31.97347686 10.73252092 -31.39046684 9.19301817 -30 7 C-21.44786013 0.72843076 -10.36704547 -0.63185153 0 0 Z " fill="#FB5E12" transform="translate(234,755)"/>
<path d="M0 0 C0.79697296 0.00719055 1.59394592 0.0143811 2.41506958 0.02178955 C3.2541687 0.0214975 4.09326782 0.02120544 4.95779419 0.02090454 C7.73906699 0.022301 10.52007389 0.03787698 13.30130005 0.05352783 C15.22658136 0.05725684 17.15186456 0.06010434 19.07714844 0.06210327 C24.15053525 0.06974857 29.22380799 0.08940473 34.29714966 0.11151123 C39.47169451 0.13195038 44.64625774 0.14110085 49.8208313 0.15118408 C59.97843357 0.17264979 70.13595108 0.20679652 80.29348755 0.24884033 C80.29348755 0.57884033 80.29348755 0.90884033 80.29348755 1.24884033 C79.64504379 1.2591478 78.99660004 1.26945526 78.32850647 1.28007507 C71.56356402 1.38847492 64.79874579 1.50304446 58.03396606 1.62115479 C55.51120611 1.66439655 52.98841892 1.70607899 50.46560669 1.74615479 C46.83393149 1.80411847 43.20239203 1.86773735 39.5708313 1.93243408 C37.88605934 1.95750282 37.88605934 1.95750282 36.16725159 1.983078 C30.77542779 2.08447725 25.63305557 2.44972131 20.29348755 3.24884033 C18.0236447 3.26349723 15.75283421 3.22180863 13.4848938 3.12774658 C12.24417114 3.07940674 11.00344849 3.03106689 9.72512817 2.98126221 C8.44831177 2.92518799 7.17149536 2.86911377 5.85598755 2.81134033 C4.55210083 2.7591333 3.24821411 2.70692627 1.90481567 2.65313721 C-1.29923692 2.52403619 -4.50293192 2.38909438 -7.70651245 2.24884033 C-5.14720783 -0.31046429 -3.48846469 0.01320399 0 0 Z " fill="#FE580B" transform="translate(455.7065124511719,756.7511596679688)"/>
<path d="M0 0 C-9.54857064 6.43177305 -22.18257239 6.2750343 -33.3125 6.3125 C-34.82529541 6.32059692 -34.82529541 6.32059692 -36.36865234 6.32885742 C-43.61303132 6.25797912 -43.61303132 6.25797912 -47 4 C-44.30695167 2.65347583 -42.14984239 2.838071 -39.13671875 2.7890625 C-37.93853516 2.76070312 -36.74035156 2.73234375 -35.50585938 2.703125 C-33.00338741 2.65192353 -30.50076766 2.60740947 -27.99804688 2.5703125 C-20.57368888 2.3808552 -13.88440146 1.51994803 -6.71801758 -0.46337891 C-4.00944555 -0.99813515 -2.56477745 -0.92116055 0 0 Z " fill="#FE6014" transform="translate(412,581)"/>
<path d="M0 0 C0.89396484 -0.00386719 1.78792969 -0.00773438 2.70898438 -0.01171875 C8.04305372 -0.0039147 13.15967484 0.34903037 18.4375 1.125 C18.4375 1.455 18.4375 1.785 18.4375 2.125 C17.20785522 2.14687378 17.20785522 2.14687378 15.95336914 2.16918945 C-4.76235961 2.5446308 -4.76235961 2.5446308 -25.234375 5.4921875 C-29.45039984 6.29382603 -33.28967542 6.35806316 -37.5625 6.125 C-37.2325 5.465 -36.9025 4.805 -36.5625 4.125 C-33.88431778 3.50029008 -31.27252661 2.99582913 -28.5625 2.5625 C-27.83160156 2.43681641 -27.10070312 2.31113281 -26.34765625 2.18164062 C-17.53145958 0.70194505 -8.94252229 -0.03885238 0 0 Z " fill="#FE5B0F" transform="translate(501.5625,216.875)"/>
<path d="M0 0 C1.21852661 0.11758667 1.21852661 0.11758667 2.46166992 0.23754883 C6.95048254 0.71976446 10.93923786 1.49684156 15.1875 3.125 C15.1875 3.455 15.1875 3.785 15.1875 4.125 C10.79113431 4.19478358 6.65524406 4.18112929 2.28125 3.65625 C-4.24930723 2.89269175 -10.80773309 2.76741216 -17.375 2.5625 C-19.31729492 2.49772461 -19.31729492 2.49772461 -21.29882812 2.43164062 C-24.46996384 2.32632615 -27.64116793 2.22419383 -30.8125 2.125 C-21.39059952 -2.79599261 -10.22259051 -1.02294428 0 0 Z " fill="#FE6113" transform="translate(692.8125,289.875)"/>
<path d="M0 0 C15.83103015 1.8462988 15.83103015 1.8462988 23.47265625 3.4921875 C28.61367932 4.52515968 33.81335505 5.23582347 39 6 C39 6.33 39 6.66 39 7 C26.13723941 7.59981785 14.52498156 5.90134009 2 3 C2 2.34 2 1.68 2 1 C1.34 0.67 0.68 0.34 0 0 Z " fill="#FD5C10" transform="translate(398,798)"/>
<path d="M0 0 C1.38261991 4.14785973 -0.08055704 7.12524428 -1.375 11.125 C-3.24804905 17.15397559 -4.49112476 22.68994699 -5 29 C-5.5610487 31.38223058 -6.25514229 33.66611252 -7 36 C-7.33 36 -7.66 36 -8 36 C-8.69623945 23.44834986 -7.08632357 12.20550532 -1 1 C-0.67 0.67 -0.34 0.34 0 0 Z " fill="#FD6012" transform="translate(210,393)"/>
<path d="M0 0 C15.35803849 -0.15600716 30.65759915 0.3194027 46 1 C46 1.33 46 1.66 46 2 C41.62515941 2.17102725 37.25010879 2.33598883 32.875 2.5 C31.65683594 2.54769531 30.43867188 2.59539063 29.18359375 2.64453125 C25.45606745 2.78258778 21.72861099 2.89554086 18 3 C16.70868164 3.04511719 15.41736328 3.09023438 14.08691406 3.13671875 C12.84393555 3.16378906 11.60095703 3.19085937 10.3203125 3.21875 C9.20156738 3.24904297 8.08282227 3.27933594 6.93017578 3.31054688 C3.68428215 2.96653948 2.36340332 2.1886826 0 0 Z " fill="#FE6C1F" transform="translate(428,758)"/>
<path d="M0 0 C0.66 0.33 1.32 0.66 2 1 C2.05831395 5.04160556 2.09370212 9.08310205 2.125 13.125 C2.14175781 14.26710938 2.15851562 15.40921875 2.17578125 16.5859375 C2.18222656 17.69453125 2.18867187 18.803125 2.1953125 19.9453125 C2.20578613 20.96125488 2.21625977 21.97719727 2.22705078 23.02392578 C1.97841818 26.28288429 1.14878364 28.95115207 0 32 C-0.33 32 -0.66 32 -1 32 C-1.17291697 21.2983611 -0.63149942 10.67910627 0 0 Z " fill="#FD5F12" transform="translate(786,408)"/>
<path d="M0 0 C13.53 0 27.06 0 41 0 C41 0.33 41 0.66 41 1 C27.40462578 4.26691062 13.74869085 2.31209103 0 1 C0 0.67 0 0.34 0 0 Z " fill="#FE5609" transform="translate(771,773)"/>
<path d="M0 0 C7.16060966 -0.17920191 13.97598857 0.5074413 21.0625 1.5 C22.11888672 1.64308594 23.17527344 1.78617188 24.26367188 1.93359375 C26.84322235 2.28375897 29.42190125 2.63932837 32 3 C32 3.33 32 3.66 32 4 C20.74086564 5.36027387 11.04251178 4.39231895 0 2 C0 1.34 0 0.68 0 0 Z " fill="#FE6719" transform="translate(614,534)"/>
<path d="M0 0 C0.33 0.66 0.66 1.32 1 2 C-15.88099467 5.69271758 -15.88099467 5.69271758 -22 5 C-24.20703125 3.4765625 -24.20703125 3.4765625 -26 2 C-24.75863281 1.86722656 -23.51726563 1.73445312 -22.23828125 1.59765625 C-20.59634139 1.41938849 -18.95441501 1.24099654 -17.3125 1.0625 C-16.49587891 0.97548828 -15.67925781 0.88847656 -14.83789062 0.79882812 C-11.54706468 0.43910221 -8.34319733 0.07456784 -5.10546875 -0.62890625 C-3 -1 -3 -1 0 0 Z " fill="#FE681B" transform="translate(689,535)"/>
<path d="M0 0 C0.99 0 1.98 0 3 0 C4.29945577 2.59891154 4.0223077 4.32666656 3.87890625 7.2265625 C3.83056641 8.2578125 3.78222656 9.2890625 3.73242188 10.3515625 C3.67634766 11.43179687 3.62027344 12.51203125 3.5625 13.625 C3.51029297 14.71296875 3.45808594 15.8009375 3.40429688 16.921875 C3.27437225 19.6148581 3.13939838 22.30749336 3 25 C2.01 25 1.02 25 0 25 C-0.100101 17.90395151 -0.05477358 10.96872413 0.87890625 3.92578125 C1.16721067 1.9157021 1.16721067 1.9157021 0 0 Z " fill="#FE6A1F" transform="translate(328,332)"/>
<path d="M0 0 C1.84368164 0.07831055 1.84368164 0.07831055 3.72460938 0.15820312 C6.71261239 0.2860943 9.70011848 0.42094684 12.6875 0.5625 C12.6875 0.8925 12.6875 1.2225 12.6875 1.5625 C-0.31716516 2.16999834 -13.29143922 2.75030376 -26.3125 2.5625 C-26.6425 1.9025 -26.9725 1.2425 -27.3125 0.5625 C-18.13578262 -0.3554589 -9.20611667 -0.43790714 0 0 Z " fill="#FC6519" transform="translate(790.3125,748.4375)"/>
<path d="M0 0 C-14.19897959 7.35204082 -14.19897959 7.35204082 -23 7 C-20.31178397 3.52813428 -17.06808997 2.95997399 -12.9375 1.875 C-2.77200656 -0.83160197 -2.77200656 -0.83160197 0 0 Z " fill="#FD6012" transform="translate(594,770)"/>
<path d="M0 0 C7.19487431 -0.40555659 14.96267391 -0.40789886 20.75390625 4.48046875 C22 6 22 6 22 8 C21.34 8 20.68 8 20 8 C20 7.01 20 6.02 20 5 C18.9275 4.896875 17.855 4.79375 16.75 4.6875 C11.04712923 3.9900266 5.54427239 2.46923218 0 1 C0 0.67 0 0.34 0 0 Z " fill="#FD5F13" transform="translate(576,760)"/>
<path d="M0 0 C2.76713403 0.18135551 5.3919776 0.4643386 8.125 0.875 C8.87910156 0.97941406 9.63320313 1.08382813 10.41015625 1.19140625 C12.27484156 1.45104598 14.13762887 1.72425029 16 2 C16 2.33 16 2.66 16 3 C18.64 3.33 21.28 3.66 24 4 C24 4.33 24 4.66 24 5 C14.84755529 5.30659554 6.65203245 5.49409003 -2 2 C-1.34 1.34 -0.68 0.68 0 0 Z " fill="#FE6A1E" transform="translate(360,409)"/>
<path d="M0 0 C1.09731445 0.01353516 1.09731445 0.01353516 2.21679688 0.02734375 C3.99884298 0.05063847 5.78071759 0.0864981 7.5625 0.125 C7.5625 0.455 7.5625 0.785 7.5625 1.125 C-0.3575 2.115 -8.2775 3.105 -16.4375 4.125 C-15.4375 2.125 -15.4375 2.125 -12.40234375 1.0078125 C-8.24727929 -0.07741006 -4.26976115 -0.10156797 0 0 Z " fill="#FE590C" transform="translate(285.4375,746.875)"/>
<path d="M0 0 C2.54232342 -0.08152344 5.08199202 -0.14073716 7.625 -0.1875 C8.33785156 -0.21263672 9.05070313 -0.23777344 9.78515625 -0.26367188 C14.59868692 -0.32991312 17.82231506 0.34556326 22 3 C22.33 3.66 22.66 4.32 23 5 C22.34 4.855625 21.68 4.71125 21 4.5625 C17.34400449 3.87700084 13.69377805 3.43824485 10 3 C10 2.67 10 2.34 10 2 C6.7 1.67 3.4 1.34 0 1 C0 0.67 0 0.34 0 0 Z " fill="#F9681F" transform="translate(804,749)"/>
<path d="M0 0 C3.3 0.33 6.6 0.66 10 1 C10.33 3.97 10.66 6.94 11 10 C10.01 9.01 9.02 8.02 8 7 C8 6.01 8 5.02 8 4 C7.05125 3.855625 6.1025 3.71125 5.125 3.5625 C2 3 2 3 0 2 C0 1.34 0 0.68 0 0 Z " fill="#FD6B1F" transform="translate(328,579)"/>
<path d="M0 0 C4.33333333 4.33333333 8.66666667 8.66666667 13 13 C8.07821839 12.56572515 5.54540325 10.30904303 2 7 C0 4 0 4 0 0 Z " fill="#FE5F11" transform="translate(566,405)"/>
<path d="M0 0 C-2.7949537 2.38135069 -4.43754781 3.38606835 -8.125 3.25 C-8.89972656 3.22421875 -9.67445313 3.1984375 -10.47265625 3.171875 C-14.6609149 2.88704752 -18.83066118 2.48743836 -23 2 C-23 1.67 -23 1.34 -23 1 C-15.31395526 0.02840067 -7.74136601 -0.10920422 0 0 Z " fill="#FD6A1E" transform="translate(450,804)"/>
<path d="M0 0 C0.33 0 0.66 0 1 0 C2.52494731 7.43411812 2.26612568 14.56151161 1 22 C0.67 22 0.34 22 0 22 C-0.75667376 14.46818582 -1.14364008 7.49719609 0 0 Z " fill="#FC691F" transform="translate(416,359)"/>
<path d="M0 0 C1.09570312 0.00902344 2.19140625 0.01804687 3.3203125 0.02734375 C4.16335938 0.03894531 5.00640625 0.05054688 5.875 0.0625 C5.875 0.7225 5.875 1.3825 5.875 2.0625 C-2.54 2.5575 -2.54 2.5575 -11.125 3.0625 C-6.92562487 0.26291658 -5.02794562 -0.05348878 0 0 Z " fill="#FD5C0F" transform="translate(261.125,749.9375)"/>
<path d="M0 0 C0 0.66 0 1.32 0 2 C5.28 2.33 10.56 2.66 16 3 C16 3.33 16 3.66 16 4 C9.07 4 2.14 4 -5 4 C-5 3.01 -5 2.02 -5 1 C-2 0 -2 0 0 0 Z " fill="#FD6A1F" transform="translate(423,776)"/>
<path d="M0 0 C3 3 3 3 3.36328125 4.97265625 C3.22222222 10.77777778 3.22222222 10.77777778 1 13 C0.60235737 14.98821313 0.26224651 16.98944339 0 19 C-0.33 19 -0.66 19 -1 19 C-0.67 12.73 -0.34 6.46 0 0 Z " fill="#FC6C22" transform="translate(201,421)"/>
<path d="M0 0 C3.96 0 7.92 0 12 0 C8.34011184 3.65988816 3.00261034 3.05470803 -1.9375 3.0625 C-3.29173445 3.04667422 -4.64595503 3.02763357 -6 3 C-6 2.67 -6 2.34 -6 2 C-4.02 2 -2.04 2 0 2 C0 1.34 0 0.68 0 0 Z " fill="#FE5D0E" transform="translate(558,777)"/>
<path d="M0 0 C-1.57297914 1.86562642 -2.45510217 2.90238443 -4.90112305 3.34057617 C-5.59761963 3.32486572 -6.29411621 3.30915527 -7.01171875 3.29296875 C-7.76904297 3.28330078 -8.52636719 3.27363281 -9.30664062 3.26367188 C-10.09232422 3.23853516 -10.87800781 3.21339844 -11.6875 3.1875 C-12.88342773 3.16719727 -12.88342773 3.16719727 -14.10351562 3.14648438 C-16.06929967 3.11117089 -18.03473582 3.05736447 -20 3 C-20 2.67 -20 2.34 -20 2 C-17.60468244 1.66254646 -15.20885732 1.3299171 -12.8125 1 C-11.80219727 0.85691406 -11.80219727 0.85691406 -10.77148438 0.7109375 C-7.15335423 0.21675387 -3.65203599 -0.11346131 0 0 Z " fill="#FE590B" transform="translate(610,419)"/>
<path d="M0 0 C5.8022175 -0.36263859 9.63999211 0.74315457 15 3 C15 3.33 15 3.66 15 4 C4.44191344 3.22095672 4.44191344 3.22095672 0 1 C0 0.67 0 0.34 0 0 Z " fill="#FE5E11" transform="translate(598,530)"/>
<path d="M0 0 C0.66 0.33 1.32 0.66 2 1 C0.50902342 4.7952131 -1.75700849 6.61042731 -5 9 C-5.66 8.34 -6.32 7.68 -7 7 C-4.69 4.69 -2.38 2.38 0 0 Z " fill="#FD6618" transform="translate(380,239)"/>
<path d="M0 0 C0.33 1.32 0.66 2.64 1 4 C-1.31 4 -3.62 4 -6 4 C-6 4.66 -6 5.32 -6 6 C-12.93 5.505 -12.93 5.505 -20 5 C-20 4.67 -20 4.34 -20 4 C-10.1 3.505 -10.1 3.505 0 3 C0 2.01 0 1.02 0 0 Z " fill="#FC6E24" transform="translate(350,737)"/>
<path d="M0 0 C-1.05078125 1.51953125 -1.05078125 1.51953125 -3 3 C-6.35546875 3.07421875 -6.35546875 3.07421875 -10.1875 2.6875 C-11.45980469 2.56761719 -12.73210938 2.44773437 -14.04296875 2.32421875 C-15.01878906 2.21722656 -15.99460937 2.11023438 -17 2 C-17 1.67 -17 1.34 -17 1 C-11.29309366 0.00749455 -5.78591511 -0.10477512 0 0 Z " fill="#FE671C" transform="translate(696,765)"/>
<path d="M0 0 C1.41569064 -0.08167446 2.83276805 -0.13949698 4.25 -0.1875 C5.43335938 -0.23970703 5.43335938 -0.23970703 6.640625 -0.29296875 C9 0 9 0 13 3 C8.71 2.67 4.42 2.34 0 2 C0 1.34 0 0.68 0 0 Z " fill="#FE5D0F" transform="translate(614,534)"/>
<path d="M0 0 C1.65 0 3.3 0 5 0 C5.33 0.99 5.66 1.98 6 3 C4.35 3 2.7 3 1 3 C1 6.3 1 9.6 1 13 C0.67 13 0.34 13 0 13 C-0.19551338 11.39679026 -0.38111983 9.79237014 -0.5625 8.1875 C-0.71912109 6.84751953 -0.71912109 6.84751953 -0.87890625 5.48046875 C-1 3 -1 3 0 0 Z " fill="#FE6A1E" transform="translate(362,584)"/>
<path d="M0 0 C0.99 0.33 1.98 0.66 3 1 C2.34 5.29 1.68 9.58 1 14 C0.67 14 0.34 14 0 14 C-0.19532961 12.2300132 -0.38098882 10.45895721 -0.5625 8.6875 C-0.66691406 7.70136719 -0.77132813 6.71523438 -0.87890625 5.69921875 C-1 3 -1 3 0 0 Z " fill="#FE681C" transform="translate(355,332)"/>
<path d="M0 0 C2.64 0.33 5.28 0.66 8 1 C7.34 1.66 6.68 2.32 6 3 C6.33 3.66 6.66 4.32 7 5 C6.34 5.66 5.68 6.32 5 7 C2.47411298 4.63707344 1.11179163 3.33537489 0 0 Z " fill="#FE6A1E" transform="translate(385,762)"/>
<path d="M0 0 C3.63 0 7.26 0 11 0 C6.577168 3.317124 5.28089024 3.30466674 0 3 C0 2.01 0 1.02 0 0 Z " fill="#FE6B1F" transform="translate(445,780)"/>
<path d="M0 0 C0.99 0.99 1.98 1.98 3 3 C-0.3 3.33 -3.6 3.66 -7 4 C-7.66 3.01 -8.32 2.02 -9 1 C-5.72429875 -0.09190042 -3.43202271 -0.28600189 0 0 Z " fill="#FC691E" transform="translate(246,776)"/>
<path d="M0 0 C0 0.66 0 1.32 0 2 C0.66 2.33 1.32 2.66 2 3 C-2.95 2.67 -7.9 2.34 -13 2 C-13 1.67 -13 1.34 -13 1 C-11.58366664 0.83052421 -10.16691467 0.66454493 -8.75 0.5 C-7.56664062 0.36078125 -7.56664062 0.36078125 -6.359375 0.21875 C-4 0 -4 0 0 0 Z " fill="#FC6B21" transform="translate(576,759)"/>
<path d="M0 0 C-0.33 0.66 -0.66 1.32 -1 2 C-4.375 2.75 -4.375 2.75 -8 3 C-8.99 2.34 -9.98 1.68 -11 1 C-3.57142857 -1.42857143 -3.57142857 -1.42857143 0 0 Z " fill="#FD671A" transform="translate(315,311)"/>
<path d="M0 0 C6.15234375 0.5859375 6.15234375 0.5859375 8 1 C8.33 1.66 8.66 2.32 9 3 C2.25 3.125 2.25 3.125 0 2 C0 1.34 0 0.68 0 0 Z " fill="#FE5C0E" transform="translate(328,579)"/>
<path d="M0 0 C0.66 0.33 1.32 0.66 2 1 C-0.75 5.875 -0.75 5.875 -3 7 C-3.66 6.34 -4.32 5.68 -5 5 C-3.35 3.35 -1.7 1.7 0 0 Z " fill="#FD6619" transform="translate(243,345)"/>
<path d="M0 0 C0.66 0.66 1.32 1.32 2 2 C4.57061311 2.64767793 4.57061311 2.64767793 7 3 C6.01 4.485 6.01 4.485 5 6 C2.5625 5.625 2.5625 5.625 0 5 C-0.33 4.34 -0.66 3.68 -1 3 C-0.67 2.01 -0.34 1.02 0 0 Z " fill="#FD6D22" transform="translate(659,287)"/>
<path d="M0 0 C2.31 0.33 4.62 0.66 7 1 C6.67 1.99 6.34 2.98 6 4 C3.69 3.67 1.38 3.34 -1 3 C-0.67 2.01 -0.34 1.02 0 0 Z " fill="#FD661B" transform="translate(410,800)"/>
<path d="M0 0 C2.64 0.33 5.28 0.66 8 1 C4.5980513 3.09350689 1.94727588 3.17942163 -2 3 C-1.34 2.67 -0.68 2.34 0 2 C0 1.34 0 0.68 0 0 Z " fill="#FE671C" transform="translate(482,218)"/>
<path d="M0 0 C0.33 0 0.66 0 1 0 C1 1.98 1 3.96 1 6 C0.67 6 0.34 6 0 6 C0 4.02 0 2.04 0 0 Z " fill="#FB7631" transform="translate(784,417)"/>
<path d="M0 0 C1.485 0.99 1.485 0.99 3 2 C2.01 2 1.02 2 0 2 C0 1.34 0 0.68 0 0 Z " fill="#FB742D" transform="translate(325,582)"/>
<path d="M0 0 C3 1 3 1 3 1 Z " fill="#FD772D" transform="translate(552,776)"/>
<path d="M0 0 C3 1 3 1 3 1 Z " fill="#F5752E" transform="translate(232,752)"/>
<path d="" fill="#FB752D" transform="translate(0,0)"/>
<path d="M0 0 C2 1 2 1 2 1 Z " fill="#F9722B" transform="translate(588,799)"/>
<path d="" fill="#FC742D" transform="translate(0,0)"/>
<path d="M0 0 C2 1 2 1 2 1 Z " fill="#FC762C" transform="translate(651,566)"/>
<path d="" fill="#FD762E" transform="translate(0,0)"/>
<path d="M0 0 C2 1 2 1 2 1 Z " fill="#FA7730" transform="translate(412,464)"/>
<path d="" fill="#FA7832" transform="translate(0,0)"/>
<path d="M0 0 C2 1 2 1 2 1 Z " fill="#FC772F" transform="translate(371,415)"/>
<path d="" fill="#FB752E" transform="translate(0,0)"/>
<path d="M0 0 C2 1 2 1 2 1 Z " fill="#FE7B32" transform="translate(377,384)"/>
<path d="" fill="#FE742C" transform="translate(0,0)"/>
<path d="" fill="#FE762E" transform="translate(0,0)"/>
<path d="M0 0 C2 1 2 1 2 1 Z " fill="#FC732D" transform="translate(306,341)"/>
<path d="" fill="#FB732D" transform="translate(0,0)"/>
<path d="M0 0 C2 1 2 1 2 1 Z " fill="#FB762D" transform="translate(475,223)"/>
<path d="M0 0 C2 1 2 1 2 1 Z " fill="#FE762D" transform="translate(523,222)"/>
<path d="M0 0 C2 1 2 1 2 1 Z " fill="#FD752E" transform="translate(513,221)"/>
<path d="" fill="#F9732B" transform="translate(0,0)"/>
<path d="" fill="#FA722E" transform="translate(0,0)"/>
<path d="" fill="#F9732D" transform="translate(0,0)"/>
<path d="" fill="#F8732C" transform="translate(0,0)"/>
<path d="" fill="#FE762E" transform="translate(0,0)"/>
<path d="" fill="#FE752D" transform="translate(0,0)"/>
<path d="" fill="#FE772C" transform="translate(0,0)"/>
<path d="" fill="#FD782E" transform="translate(0,0)"/>
<path d="" fill="#FE762E" transform="translate(0,0)"/>
<path d="" fill="#F9742F" transform="translate(0,0)"/>
<path d="" fill="#FA762F" transform="translate(0,0)"/>
<path d="" fill="#F07430" transform="translate(0,0)"/>
<path d="" fill="#FB752E" transform="translate(0,0)"/>
<path d="" fill="#FB7530" transform="translate(0,0)"/>
<path d="" fill="#FB7732" transform="translate(0,0)"/>
<path d="" fill="#F17230" transform="translate(0,0)"/>
<path d="" fill="#F6742C" transform="translate(0,0)"/>
<path d="" fill="#F8762F" transform="translate(0,0)"/>
<path d="" fill="#F97530" transform="translate(0,0)"/>
<path d="" fill="#FE742D" transform="translate(0,0)"/>
<path d="" fill="#FD762E" transform="translate(0,0)"/>
<path d="" fill="#FB752C" transform="translate(0,0)"/>
<path d="" fill="#FB762F" transform="translate(0,0)"/>
<path d="" fill="#FF752F" transform="translate(0,0)"/>
<path d="" fill="#FB772E" transform="translate(0,0)"/>
<path d="" fill="#FD762E" transform="translate(0,0)"/>
<path d="" fill="#FD782F" transform="translate(0,0)"/>
<path d="" fill="#FB762F" transform="translate(0,0)"/>
<path d="" fill="#FC742B" transform="translate(0,0)"/>
<path d="" fill="#FE742D" transform="translate(0,0)"/>
<path d="" fill="#FA762E" transform="translate(0,0)"/>
<path d="" fill="#FB762F" transform="translate(0,0)"/>
<path d="" fill="#F9732C" transform="translate(0,0)"/>
<path d="" fill="#FA762C" transform="translate(0,0)"/>
<path d="" fill="#F7722D" transform="translate(0,0)"/>
<path d="" fill="#FC752E" transform="translate(0,0)"/>
<path d="" fill="#F8742D" transform="translate(0,0)"/>
<path d="" fill="#F87730" transform="translate(0,0)"/>
<path d="" fill="#F9772D" transform="translate(0,0)"/>
<path d="" fill="#FB7630" transform="translate(0,0)"/>
<path d="" fill="#FB752E" transform="translate(0,0)"/>
<path d="" fill="#FA752D" transform="translate(0,0)"/>
<path d="" fill="#FC772D" transform="translate(0,0)"/>
<path d="" fill="#FC752E" transform="translate(0,0)"/>
<path d="" fill="#FB762D" transform="translate(0,0)"/>
<path d="" fill="#FC772D" transform="translate(0,0)"/>
<path d="" fill="#FA722D" transform="translate(0,0)"/>
<path d="" fill="#FD7630" transform="translate(0,0)"/>
<path d="" fill="#F5742E" transform="translate(0,0)"/>
<path d="" fill="#F6712C" transform="translate(0,0)"/>
<path d="" fill="#F8712D" transform="translate(0,0)"/>
<path d="" fill="#FC762E" transform="translate(0,0)"/>
<path d="" fill="#FE7730" transform="translate(0,0)"/>
<path d="" fill="#FB7632" transform="translate(0,0)"/>
<path d="" fill="#F5742C" transform="translate(0,0)"/>
<path d="" fill="#FC782F" transform="translate(0,0)"/>
<path d="" fill="#F5722E" transform="translate(0,0)"/>
<path d="" fill="#F7732E" transform="translate(0,0)"/>
<path d="" fill="#FF7931" transform="translate(0,0)"/>
<path d="" fill="#F4732E" transform="translate(0,0)"/>
<path d="" fill="#F47632" transform="translate(0,0)"/>
<path d="" fill="#F97631" transform="translate(0,0)"/>
<path d="" fill="#F57433" transform="translate(0,0)"/>
<path d="" fill="#FA772D" transform="translate(0,0)"/>
<path d="" fill="#FE772E" transform="translate(0,0)"/>
<path d="" fill="#F37430" transform="translate(0,0)"/>
<path d="" fill="#FC792F" transform="translate(0,0)"/>
<path d="" fill="#FD772D" transform="translate(0,0)"/>
<path d="" fill="#FC752F" transform="translate(0,0)"/>
<path d="" fill="#FD762F" transform="translate(0,0)"/>
<path d="" fill="#FA7B33" transform="translate(0,0)"/>
<path d="" fill="#FA722A" transform="translate(0,0)"/>
<path d="" fill="#F9752E" transform="translate(0,0)"/>
<path d="" fill="#FD7630" transform="translate(0,0)"/>
<path d="" fill="#FD752D" transform="translate(0,0)"/>
<path d="" fill="#FF7832" transform="translate(0,0)"/>
<path d="" fill="#FC782F" transform="translate(0,0)"/>
<path d="" fill="#FF762E" transform="translate(0,0)"/>
<path d="" fill="#F1722F" transform="translate(0,0)"/>
<path d="" fill="#FC7731" transform="translate(0,0)"/>
<path d="" fill="#FC762E" transform="translate(0,0)"/>
<path d="" fill="#FD782F" transform="translate(0,0)"/>
<path d="" fill="#FC762F" transform="translate(0,0)"/>
<path d="" fill="#FC752F" transform="translate(0,0)"/>
<path d="" fill="#F3742F" transform="translate(0,0)"/>
<path d="" fill="#FE7832" transform="translate(0,0)"/>
<path d="" fill="#FF762D" transform="translate(0,0)"/>
<path d="" fill="#FE772F" transform="translate(0,0)"/>
<path d="" fill="#FA762E" transform="translate(0,0)"/>
<path d="" fill="#FB782F" transform="translate(0,0)"/>
<path d="" fill="#F6742F" transform="translate(0,0)"/>
<path d="" fill="#F6742D" transform="translate(0,0)"/>
<path d="" fill="#F87730" transform="translate(0,0)"/>
<path d="" fill="#F4732D" transform="translate(0,0)"/>
<path d="" fill="#FB7732" transform="translate(0,0)"/>
<path d="" fill="#FB742C" transform="translate(0,0)"/>
<path d="" fill="#F5712C" transform="translate(0,0)"/>
<path d="" fill="#FD7630" transform="translate(0,0)"/>
<path d="" fill="#F6762E" transform="translate(0,0)"/>
<path d="" fill="#FA742E" transform="translate(0,0)"/>
<path d="" fill="#FB752F" transform="translate(0,0)"/>
<path d="" fill="#FE752D" transform="translate(0,0)"/>
<path d="" fill="#FE762F" transform="translate(0,0)"/>
<path d="" fill="#F6742F" transform="translate(0,0)"/>
<path d="" fill="#FC752C" transform="translate(0,0)"/>
<path d="" fill="#FA742B" transform="translate(0,0)"/>
<path d="" fill="#F5722B" transform="translate(0,0)"/>
<path d="" fill="#FF762D" transform="translate(0,0)"/>
<path d="" fill="#FE752C" transform="translate(0,0)"/>
<path d="" fill="#F7742E" transform="translate(0,0)"/>
<path d="" fill="#F5732E" transform="translate(0,0)"/>
<path d="" fill="#F8742E" transform="translate(0,0)"/>
  </g>
</svg>
