<svg width="870" height="830" viewBox="0 0 870 830" fill="none" xmlns="http://www.w3.org/2000/svg">
<path d="M637.502 748.155C689.169 755.155 804.002 767.055 850.002 758.655" stroke="#fb923c" stroke-width="40" stroke-linecap="round"/>
<path d="M20.002 777.145C188.335 754.812 552.002 715.15 563.002 765.145C574.002 815.14 271.502 830.655 243.502 768.145C215.502 705.635 204.858 570.156 217.93 507.156C231.002 444.155 276.502 324.656 351.502 403.156C426.502 481.655 280.502 519.655 204.002 507.156C127.502 494.656 25.502 431.655 31.002 324.155C36.502 216.655 127.502 179.155 205.002 178.155C282.502 177.155 317.502 260.155 262.002 277.155C206.502 294.155 190.002 208.155 215.002 150.655C230.002 108.988 291.002 24.555 415.002 20.155C539.002 15.755 603.002 107.322 619.502 153.655C628.502 200.988 591.002 318.655 528.502 288.655C466.002 258.655 550.502 151.655 635.002 150.655C719.502 149.655 842.002 207.155 805.002 346.155C768.002 485.155 621.002 493.655 513.002 459.655" stroke="#fb923c" stroke-width="40" stroke-linecap="round"/>
<path d="M637.502 748.155C689.169 755.155 804.002 767.055 850.002 758.655" stroke="#fb923c" stroke-width="35" stroke-linecap="round"/>
<path d="M20.002 777.145C188.335 754.812 552.002 715.15 563.002 765.145C574.002 815.14 271.502 830.655 243.502 768.145C215.502 705.635 204.858 570.156 217.93 507.156C231.002 444.155 276.502 324.656 351.502 403.156C426.502 481.655 280.502 519.655 204.002 507.156C127.502 494.656 25.502 431.655 31.002 324.155C36.502 216.655 127.502 179.155 205.002 178.155C282.502 177.155 317.502 260.155 262.002 277.155C206.502 294.155 190.002 208.155 215.002 150.655C230.002 108.988 291.002 24.555 415.002 20.155C539.002 15.755 603.002 107.322 619.502 153.655C628.502 200.988 591.002 318.655 528.502 288.655C466.002 258.655 550.502 151.655 635.002 150.655C719.502 149.655 842.002 207.155 805.002 346.155C768.002 485.155 621.002 493.655 513.002 459.655" stroke="#fb923c" stroke-width="35" stroke-linecap="round"/>
</svg>
